<svg width="44" height="44" viewBox="0 0 44 44" fill="none" xmlns="http://www.w3.org/2000/svg">
<path d="M33.5697 6.18925C29.505 5.91975 26.0424 7.07689 23.4178 10.2195C21.6201 12.3718 20.7709 14.8814 20.8914 17.6803C21.0316 20.9391 22.3774 23.6416 24.8729 25.7457C27.3609 27.8449 30.2933 28.5508 33.5324 28.2875C33.5461 28.5249 33.5635 28.688 33.5635 28.8525C33.5647 31.7577 33.5684 34.6629 33.5635 37.5681C33.5597 39.692 32.2375 41 30.1059 41C22.9026 41 15.6981 41 8.49486 41C6.31849 41 5.00124 39.6797 5.00124 37.5001C5 27.1613 5 16.8236 5 6.48472C5 4.32991 6.32097 3.00216 8.46382 3.00093C15.6981 2.99969 22.9324 2.99969 30.1679 3.00093C31.844 3.00093 33.0967 3.92565 33.4704 5.43637C33.5237 5.65395 33.5312 5.8839 33.5697 6.18925ZM9.78355 36.2181H28.7799V33.1213H9.78355V36.2181ZM9.79596 29.8662H20.8491V26.7644H9.79596V29.8662ZM16.1016 7.78651H9.80465V10.8908H16.1016V7.78651ZM9.78975 23.5538H16.0904V20.4471H9.78975V23.5538ZM9.79844 14.1211V17.2316H16.0966V14.1211H9.79844Z" fill="#557b43"/>
<path d="M31.9607 25.161C27.5707 25.1511 24.0299 21.5944 24.046 17.2093C24.0622 12.8638 27.6415 9.32195 32.0004 9.33926C36.3891 9.35656 39.9461 12.9306 39.9188 17.2959C39.8915 21.6512 36.3308 25.1709 31.9594 25.161H31.9607ZM36.6523 15.4724C36.0937 14.9173 35.5499 14.377 34.9366 13.7663C33.7745 14.9296 32.5777 16.1276 31.3287 17.3799C30.5255 16.5677 29.7123 15.7468 28.9252 14.9519C28.3764 15.502 27.8339 16.0448 27.3336 16.5454C28.6967 17.9016 30.0847 19.2813 31.4579 20.6474C33.1749 18.9364 34.9279 17.192 36.6523 15.4736V15.4724Z" fill="#eb6f45"/>
</svg>
