<svg width="34" height="37" viewBox="0 0 34 37" fill="none" xmlns="http://www.w3.org/2000/svg">
<g id="Group 1000002740">
<path id="Vector" d="M27.8178 3.10533C23.8601 2.84291 20.4886 3.96961 17.9331 7.02949C16.1827 9.12519 15.3559 11.5688 15.4732 14.294C15.6098 17.467 16.9201 20.0984 19.3499 22.1472C21.7724 24.1911 24.6277 24.8784 27.7816 24.622C27.7949 24.8531 27.8118 25.012 27.8118 25.1721C27.813 28.0009 27.8166 30.8297 27.8118 33.6584C27.8082 35.7265 26.5208 37 24.4452 37C17.4315 37 10.4166 37 3.40289 37C1.28379 37 0.00120884 35.7144 0.00120884 33.5922C0 23.5254 0 13.4598 0 3.39302C0 1.29491 1.28621 0.00210653 3.37266 0.000902799C10.4166 -0.000300933 17.4605 -0.000300933 24.5056 0.000902799C26.1375 0.000902799 27.3573 0.901294 27.7211 2.37225C27.7731 2.58411 27.7804 2.808 27.8178 3.10533ZM4.65766 32.344H23.1541V29.3286H4.65766V32.344ZM4.66975 26.1592H15.4321V23.139H4.66975V26.1592ZM10.8095 4.66055H4.67821V7.68312H10.8095V4.66055ZM4.66371 20.0129H10.7986V16.988H4.66371V20.0129ZM4.67217 10.8285V13.8571H10.8046V10.8285H4.67217Z" fill="#EB7044"/>
<path id="Vector_2" opacity="0.4" d="M26.2511 21.5783C21.9766 21.5686 18.529 18.1055 18.5447 13.8359C18.5604 9.60475 22.0455 6.15606 26.2898 6.17291C30.563 6.18977 34.0264 9.66975 33.9998 13.9201C33.9732 18.1609 30.5062 21.5879 26.2499 21.5783H26.2511ZM30.8193 12.1446C30.2753 11.6041 29.7458 11.0781 29.1487 10.4835C28.0172 11.6162 26.8519 12.7826 25.6358 14.002C24.8537 13.2111 24.0619 12.4119 23.2955 11.6379C22.7612 12.1735 22.2329 12.702 21.7457 13.1895C23.073 14.51 24.4245 15.8533 25.7615 17.1834C27.4333 15.5175 29.1402 13.819 30.8193 12.1458V12.1446Z" fill="#EB7044"/>
</g>
</svg>
