<svg width="31" height="38" viewBox="0 0 31 38" fill="none" xmlns="http://www.w3.org/2000/svg">
<g id="Group 1000002732">
<path id="Vector" d="M17.0022 0V13.2884H30.2169V13.7992C30.2169 21.1324 30.2169 28.4667 30.2169 35.7999C30.2169 37.2599 29.4887 37.9988 28.0513 38C19.4266 38 10.8009 38 2.17625 38C0.730538 38 0 37.2658 0 35.8118C0 24.6035 0 13.3953 0 2.18701C0 0.732962 0.730539 0 2.17743 0C6.94011 0 11.7016 0 16.4643 0H17.0033H17.0022ZM13.1012 24.0262C12.3045 23.3598 11.5361 22.7147 10.7666 22.072C10.3126 21.6931 9.79489 21.5113 9.20739 21.6242C8.44493 21.7703 7.92008 22.2241 7.71203 22.9725C7.50043 23.7352 7.69311 24.4218 8.30426 24.9421C9.46272 25.9293 10.633 26.9022 11.7997 27.8775C12.8577 28.7613 13.788 28.7174 14.7609 27.7385C17.1369 25.3472 19.5129 22.9547 21.8878 20.5621C22.0131 20.4362 22.1431 20.3127 22.246 20.1689C22.7011 19.537 22.7779 18.8527 22.4233 18.1577C22.0793 17.483 21.5048 17.1361 20.7435 17.1254C20.1418 17.1171 19.6808 17.4022 19.2682 17.818C17.2303 19.8767 15.1853 21.9307 13.1024 24.0262H13.1012Z" fill="#54AB26"/>
<path id="Vector_2" opacity="0.4" d="M30.0584 9.4741H20.8014V0.141602C23.8796 3.24452 26.9625 6.35337 30.0584 9.4741Z" fill="#54AB26"/>
</g>
</svg>
