<svg width="52" height="52" viewBox="0 0 52 52" fill="none" xmlns="http://www.w3.org/2000/svg">
<path d="M38.5 18.7498V22.2498H29.75L23.6775 30.9998H28V34.4998H25.305L31.7975 48.4998H27.9475L26.32 44.9998H11.165L9.36246 48.4998H5.42496L12.6525 34.4998H12.25C11.4625 34.4998 10.7975 33.9748 10.57 33.2748L5.02246 16.7198L6.68496 16.1248C7.59496 15.8448 8.59246 16.3523 8.88996 17.2623L13.51 30.9998H21.175L27.2475 22.2498H21V18.7498H38.5ZM16.625 34.4998L12.985 41.4998H24.6925L21.455 34.4998H16.625Z" fill="#557B43"/>
<path d="M42.5 1.1875C39.2221 1.1875 36.5625 3.58143 36.5625 6.53125C36.5625 11.2812 42.5 17.8125 42.5 17.8125C42.5 17.8125 48.4375 11.2812 48.4375 6.53125C48.4375 3.58143 45.7779 1.1875 42.5 1.1875ZM42.5 9.5C42.0303 9.5 41.5711 9.36071 41.1805 9.09974C40.79 8.83877 40.4855 8.46785 40.3058 8.03387C40.126 7.5999 40.079 7.12237 40.1706 6.66166C40.2623 6.20096 40.4885 5.77777 40.8206 5.44562C41.1528 5.11347 41.576 4.88727 42.0367 4.79563C42.4974 4.70399 42.9749 4.75103 43.4089 4.93079C43.8428 5.11054 44.2138 5.41495 44.4747 5.80552C44.7357 6.19609 44.875 6.65527 44.875 7.125C44.8743 7.75468 44.6239 8.35837 44.1786 8.80362C43.7334 9.24887 43.1297 9.49931 42.5 9.5Z" fill="#557B43"/>
</svg>
