<svg width="34" height="34" viewBox="0 0 34 34" fill="none" xmlns="http://www.w3.org/2000/svg">
<g id="Layer_1">
<path id="Vector" d="M0 9.43191C0.143438 8.8057 0.314102 8.19012 0.69793 7.6582C1.53531 6.49609 2.6775 5.92566 4.10258 5.925C9.63555 5.92234 15.1685 5.92367 20.7015 5.92367C21.8178 5.92367 22.9347 5.92367 24.1214 5.92367C24.0304 6.0359 23.98 6.11094 23.9175 6.17336C21.7042 8.38934 19.4916 10.606 17.2683 12.812C17.1534 12.9262 16.9436 12.9979 16.7775 12.9986C13.4134 13.0092 10.0493 13.0066 6.68578 13.0066H6.26543V14.9948H16.4973C16.3957 15.9404 16.2981 16.8462 16.1971 17.7818H10.0685C10.0685 18.418 10.0605 19.0223 10.0818 19.6259C10.0838 19.6797 10.273 19.7687 10.376 19.77C11.4053 19.7807 12.4352 19.7441 13.4632 19.7833C15.9621 19.8783 18.4311 19.5715 20.9027 19.2839C21.2978 19.2381 21.6982 19.2189 22.0887 19.1478C22.268 19.1153 22.4666 19.0236 22.5947 18.8961C24.5039 17.0022 26.4038 15.0984 28.303 13.1945C28.388 13.1095 28.4498 13.0019 28.5228 12.905C28.55 12.9209 28.5779 12.9362 28.6052 12.9521C28.6125 13.0431 28.6264 13.1347 28.6264 13.2257C28.6277 16.3468 28.6317 19.4679 28.6257 22.589C28.6211 24.8833 26.8879 26.6238 24.5922 26.6291C21.0289 26.6378 17.4655 26.6291 13.9028 26.6391C13.6983 26.6391 13.4645 26.7082 13.2945 26.8211C10.6595 28.5709 8.03316 30.3333 5.4048 32.0917C5.30652 32.1575 5.20492 32.2192 5.06148 32.3102V26.6311C4.80316 26.6311 4.57606 26.6311 4.34828 26.6311C1.99949 26.6311 0.593672 25.5202 0.0425 23.2278C0.0378516 23.2092 0.0152734 23.1959 0.000664063 23.18C0.000664063 18.5973 0.000664063 14.0139 0.000664063 9.43125L0 9.43191ZM8.42695 17.8077H6.2568V19.7574H8.42695V17.8077Z" fill="#EB7044"/>
<path id="Vector_2" opacity="0.4" d="M31.8783 6.80561C31.784 6.89858 31.7009 7.00284 31.6412 7.07057C30.665 6.09307 29.7094 5.13616 28.7698 4.19518C29.3754 3.5869 30.0116 2.94874 30.7015 2.25612C30.9851 1.97124 31.4473 1.97588 31.7249 2.26608C32.3398 2.91022 32.958 3.55702 33.5769 4.20448C33.8167 4.45549 33.8147 4.85128 33.5723 5.09963C33.0975 5.58639 32.3378 6.35139 31.8789 6.80495L31.8783 6.80561Z" fill="#EB7044"/>
<path id="Vector_3" opacity="0.4" d="M23.6712 14.9207C22.7408 13.9916 21.8018 13.0533 20.894 12.1462C23.029 10.0112 25.1699 7.87031 27.2883 5.75195C28.1835 6.64578 29.1357 7.59672 30.0654 8.52508C27.957 10.6341 25.8174 12.7737 23.6712 14.9207Z" fill="#EB7044"/>
<path id="Vector_4" opacity="0.4" d="M22.264 16.4514C22.0329 16.6719 21.7892 16.9103 21.5368 17.1401C21.4844 17.1879 21.4027 17.2204 21.331 17.2284C20.3209 17.3433 19.3109 17.4535 18.2411 17.5711C18.275 17.1886 18.3022 16.8432 18.338 16.4986C18.4031 15.8717 18.4602 15.2435 18.5492 14.6193C18.5731 14.4493 18.6741 14.274 18.7836 14.1352C18.9603 13.9121 19.1728 13.7175 19.3501 13.5322C20.3282 14.5124 21.2719 15.4573 22.264 16.4514Z" fill="#EB7044"/>
<path id="Vector_5" d="M8.42699 17.8081V19.7578H6.25684V17.8081H8.42699Z" fill="white"/>
</g>
</svg>
