<svg width="40" height="38" viewBox="0 0 40 38" fill="none" xmlns="http://www.w3.org/2000/svg">
<g id="Group 1000002733">
<path id="Vector" d="M15.4726 0.00220552C19.6676 0.00220552 23.8638 0.00220552 28.0589 0.00220552C29.277 0.00220552 29.7121 0.431312 29.7121 1.62829C29.7121 6.86339 29.7156 12.0985 29.7099 17.3336C29.7076 19.6959 28.1462 21.6326 25.811 22.1622C25.3701 22.2615 24.904 22.292 24.4494 22.292C19.438 22.3011 14.4267 22.3056 9.41417 22.2898C8.4716 22.2864 7.65417 22.545 6.89414 23.0848C4.65425 24.677 2.40287 26.2545 0.150346 27.8309C-0.700378 28.426 -1.73939 28.0974 -1.96097 27.168C-2.00574 26.9795 -1.99885 26.7762 -1.99885 26.5797C-2 19.4396 -2 12.2995 -2 5.15939C-2 2.09354 0.110163 0.00898089 3.23063 0.00333475C7.31089 -0.00344062 11.3923 0.00220552 15.4726 0.00220552ZM14.7206 9.45271C15.8227 9.45271 16.9237 9.45271 18.0259 9.45271C19.399 9.45271 20.7732 9.46288 22.1463 9.44707C22.9603 9.43803 23.524 8.80341 23.4379 8.03553C23.361 7.35122 22.795 6.91308 21.9661 6.91195C18.0167 6.90969 14.0673 6.91195 10.1179 6.91195C9.20177 6.91195 8.28676 6.90969 7.37059 6.91308C6.8287 6.91534 6.39473 7.12199 6.13412 7.60643C5.66685 8.47367 6.2914 9.44368 7.3373 9.44933C9.79877 9.46062 12.2591 9.45271 14.7206 9.45384V9.45271ZM14.6907 15.3812C16.6505 15.3812 18.6114 15.3812 20.5712 15.3812C21.1291 15.3812 21.6882 15.3958 22.2451 15.371C22.8822 15.3439 23.3817 14.8561 23.4391 14.2474C23.4988 13.6071 23.0981 13.0437 22.4609 12.8957C22.2829 12.8539 22.0935 12.8427 21.9087 12.8427C17.1155 12.8404 12.3222 12.8393 7.52788 12.8427C7.32926 12.8427 7.09046 12.8167 6.94121 12.9115C6.63123 13.1092 6.265 13.3271 6.10656 13.6297C5.67144 14.4642 6.33618 15.3733 7.34878 15.3766C9.79533 15.3857 12.2419 15.38 14.6896 15.38L14.6907 15.3812Z" fill="#1CB7A3"/>
<path id="Vector_2" opacity="0.4" d="M42 37.0408C41.4271 38.1181 40.6958 38.2818 39.6729 37.5625C37.4709 36.0143 35.2631 34.4729 33.0692 32.9135C32.3195 32.3805 31.5043 32.1332 30.5836 32.1354C25.5573 32.1445 20.531 32.14 15.5047 32.1388C12.421 32.1388 10.2913 30.0452 10.2867 27.0144C10.2867 26.3098 10.2867 25.6062 10.2867 24.8384C10.4739 24.8384 10.6381 24.8384 10.8034 24.8384C15.414 24.8384 20.0259 24.8463 24.6365 24.8361C28.106 24.8282 31.044 22.6872 31.975 19.4599C32.1725 18.7767 32.2632 18.0449 32.2747 17.3346C32.3114 15.0062 32.2885 12.6777 32.2885 10.3492C32.2885 10.1979 32.2885 10.0466 32.2885 9.85351C33.0565 9.85351 33.7833 9.84561 34.5088 9.85577C35.5961 9.87045 36.6948 9.80157 37.7659 9.94047C39.9392 10.2205 41.5224 11.8071 41.9197 13.9379C41.9346 14.0192 41.9713 14.0972 41.9977 14.1762V37.0431L42 37.0408Z" fill="#1CB7A3"/>
</g>
</svg>
