<svg width="34" height="34" viewBox="0 0 34 34" fill="none" xmlns="http://www.w3.org/2000/svg">
<g id="Group 1000002737">
<g id="Vector">
<path d="M22.6961 2.4515C22.5919 3.7075 22.8155 4.84315 23.8131 5.69161C24.4222 6.20938 25.1294 6.47534 25.9337 6.46422C26.9718 6.45006 27.8085 6.02634 28.458 5.22137C29.1106 4.41235 29.1966 3.45367 29.141 2.47375C31.4022 2.10363 33.1677 3.58008 33.1779 5.81903C33.1839 7.26008 33.1799 8.70013 33.1779 10.1412C33.1779 10.2534 33.1677 10.3647 33.1617 10.5002H0.865545C0.865545 10.2271 0.865545 9.97635 0.865545 9.72657C0.865545 8.45035 0.906015 7.1721 0.856439 5.89791C0.777523 3.86526 2.37609 2.317 4.34597 2.42622C4.50886 2.43532 4.67378 2.42723 4.90041 2.42723C4.90041 2.70938 4.89636 2.9804 4.90041 3.25142C4.92773 4.90889 6.18635 6.31253 7.76569 6.44804C9.50489 6.59871 10.9861 5.51464 11.2997 3.82683C11.3817 3.38592 11.3574 2.92579 11.3837 2.45049H22.6951L22.6961 2.4515Z" fill="#7931C1"/>
<path d="M9.74569 2.44038C9.74569 2.73061 9.75682 3.02186 9.74367 3.31108C9.70522 4.13324 9.05972 4.7936 8.25032 4.85023C7.41563 4.90889 6.64366 4.34561 6.56069 3.50727C6.48886 2.78421 6.48987 2.04194 6.56575 1.31888C6.65276 0.501778 7.41664 -0.0473406 8.2402 0.00322282C9.04859 0.052775 9.70218 0.711111 9.74367 1.53226C9.75884 1.83463 9.74569 2.13801 9.7467 2.44139L9.74569 2.44038Z" fill="#7931C1"/>
<path d="M27.5535 2.47173C27.5333 2.82062 27.5444 3.19074 27.4837 3.54873C27.3471 4.35876 26.6106 4.90889 25.789 4.85023C24.9958 4.7936 24.3382 4.14538 24.3038 3.34546C24.2785 2.74073 24.2805 2.13295 24.3028 1.52822C24.3321 0.711111 24.9999 0.0507524 25.8072 0.00322282C26.6328 -0.0453181 27.3562 0.506835 27.4868 1.32293C27.5464 1.69406 27.5323 2.07632 27.5535 2.47173Z" fill="#7931C1"/>
</g>
<path id="Vector_2" opacity="0.4" d="M0.865601 12.1548H33.1607C33.1678 12.3035 33.1789 12.438 33.1789 12.5725C33.1789 18.5511 33.1516 24.5297 33.1951 30.5073C33.2103 32.5208 31.6977 34.0083 29.7056 34.0002C21.2231 33.9659 12.7395 33.9861 4.25699 33.9851C2.55017 33.9851 1.24905 32.9637 0.925294 31.3679C0.875718 31.1232 0.868636 30.8653 0.868636 30.6135C0.865601 24.5722 0.866612 18.5299 0.866612 12.4885C0.866612 12.3884 0.866612 12.2893 0.866612 12.1538L0.865601 12.1548ZM5.71998 27.4776C5.71998 27.4776 5.71695 27.4776 5.71493 27.4776C5.71493 27.7425 5.71088 28.0085 5.71493 28.2734C5.73213 29.2351 6.3584 29.9006 7.31046 29.941C7.8649 29.9643 8.42136 29.9663 8.97479 29.939C9.87626 29.8945 10.5076 29.2655 10.5531 28.3634C10.5815 27.7961 10.5825 27.2257 10.5531 26.6584C10.5046 25.7372 9.84996 25.1132 8.93432 25.095C8.36673 25.0839 7.79812 25.0788 7.23154 25.1001C6.40393 25.1314 5.76248 25.7786 5.721 26.6058C5.70683 26.8961 5.71897 27.1863 5.71897 27.4776H5.71998ZM17.0253 25.098V25.096C16.7349 25.096 16.4446 25.0859 16.1552 25.098C15.278 25.1334 14.6204 25.8039 14.6011 26.6867C14.59 27.2167 14.5941 27.7476 14.6001 28.2785C14.6102 29.2078 15.2416 29.8894 16.1694 29.938C16.7359 29.9673 17.3056 29.9663 17.8721 29.938C18.7574 29.8945 19.412 29.2483 19.4414 28.3968C19.4626 27.8042 19.4636 27.2086 19.4414 26.616C19.41 25.7928 18.7534 25.1415 17.9349 25.1001C17.6334 25.0849 17.3298 25.098 17.0263 25.098H17.0253ZM25.9014 21.0317C26.1786 21.0317 26.4568 21.0388 26.7341 21.0307C27.6477 21.0024 28.3013 20.3572 28.3266 19.4461C28.3417 18.903 28.3397 18.36 28.3286 17.8169C28.3104 16.8967 27.6922 16.2373 26.7745 16.1888C26.1958 16.1584 25.613 16.1574 25.0343 16.1908C24.1541 16.2414 23.5339 16.8744 23.4914 17.7593C23.4641 18.3266 23.4641 18.8969 23.4914 19.4643C23.5369 20.3845 24.1925 21.0065 25.1072 21.0327C25.3722 21.0398 25.6373 21.0338 25.9024 21.0327L25.9014 21.0317ZM17.0182 21.0277C17.0182 21.0277 17.0182 21.0297 17.0182 21.0317C17.2954 21.0317 17.5737 21.0398 17.8509 21.0307C18.7726 21.0004 19.4302 20.3309 19.4454 19.4036C19.4535 18.8858 19.4525 18.3681 19.4454 17.8493C19.4343 16.9169 18.805 16.2363 17.8782 16.1888C17.3116 16.1594 16.742 16.1615 16.1754 16.1888C15.2932 16.2302 14.6335 16.8795 14.6042 17.7279C14.5839 18.3205 14.5829 18.9162 14.6042 19.5088C14.6345 20.3299 15.2912 20.9842 16.1086 21.0267C16.4102 21.0429 16.7137 21.0297 17.0172 21.0297L17.0182 21.0277ZM5.71695 18.6037C5.71695 18.8818 5.70987 19.1599 5.71796 19.437C5.74629 20.3501 6.39179 21.0034 7.30236 21.0287C7.83151 21.0429 8.36167 21.0398 8.89183 21.0317C9.86715 21.0166 10.5278 20.3724 10.5592 19.3965C10.5764 18.8666 10.5784 18.3347 10.5592 17.8048C10.5238 16.8683 9.87828 16.2201 8.94545 16.1837C8.40416 16.1635 7.85984 16.1625 7.31855 16.1837C6.36751 16.2201 5.73516 16.8865 5.71695 17.8452C5.71189 18.098 5.71695 18.3509 5.71695 18.6027V18.6037ZM25.9429 25.097V25.093C25.6778 25.093 25.4127 25.0889 25.1476 25.093C24.1723 25.1122 23.5137 25.7564 23.4853 26.7333C23.4702 27.251 23.4712 27.7698 23.4853 28.2866C23.5116 29.2412 24.1571 29.9046 25.1062 29.941C25.6474 29.9622 26.1918 29.9633 26.7331 29.941C27.672 29.9016 28.3094 29.2453 28.3276 28.3119C28.3387 27.7435 28.3438 27.1742 28.3215 26.6069C28.2891 25.7786 27.6416 25.1395 26.814 25.0991C26.5246 25.0849 26.2343 25.097 25.9439 25.097H25.9429Z" fill="#7931C1"/>
</g>
</svg>
