<svg width="34" height="34" viewBox="0 0 34 34" fill="none" xmlns="http://www.w3.org/2000/svg">
<g id="Layer_1" clip-path="url(#clip0_128_120)">
<path id="Vector" d="M3.39091 0C9.16712 0 14.9442 0 20.7204 0C20.7479 0.0168229 20.7737 0.0460417 20.8029 0.0495833C22.443 0.267396 24.1319 1.75578 24.0973 4.13135C24.0662 6.2112 24.0911 8.29193 24.0911 10.3718V10.7445C22.6346 11.2395 21.195 11.7291 19.7429 12.2223C19.4068 11.529 18.8453 11.328 18.1268 11.3307C14.067 11.3448 10.0062 11.3378 5.9455 11.3378C5.81245 11.3378 5.6794 11.336 5.54723 11.3457C4.68328 11.4077 4.07834 12.2639 4.30453 13.1006C4.48726 13.7797 5.01414 14.1587 5.79737 14.1587C8.7183 14.1605 11.6392 14.1596 14.5593 14.1596C14.6692 14.1596 14.7792 14.1596 14.8573 14.1596C14.5229 14.6404 14.1512 15.0627 13.9144 15.5497C13.6731 16.0446 13.564 16.6042 13.3999 17.1266C13.2323 17.0912 13.0176 17.0071 12.803 17.0062C10.4018 16.9965 8.00159 16.9903 5.60045 17.0062C4.83319 17.0115 4.23801 17.6844 4.25486 18.4512C4.2726 19.2472 4.90415 19.8324 5.77342 19.8351C7.74258 19.8413 9.71175 19.8422 11.6809 19.8333C12.2699 19.8307 12.8597 19.7873 13.4656 19.7616C13.4656 20.7497 13.4789 21.7998 13.4629 22.8508C13.4257 25.2379 14.0554 27.4373 15.2769 29.4773C15.3239 29.5552 15.3602 29.6384 15.4099 29.7349C15.3336 29.7411 15.3008 29.7473 15.268 29.7473C11.4512 29.7473 7.63437 29.7597 3.81756 29.742C1.7393 29.7323 0.012287 27.9986 0.00962598 25.9188C-0.00101815 18.5619 -0.00811423 11.2041 0.0158351 3.84536C0.0202701 2.26047 0.811484 1.08995 2.23868 0.388698C2.59881 0.211615 3.00595 0.1275 3.39091 0ZM8.48679 8.5C9.40395 8.5 10.3211 8.50266 11.2383 8.5C12.1138 8.49734 12.7515 7.89703 12.7515 7.08422C12.7515 6.27229 12.1173 5.66755 11.2383 5.66401C9.4146 5.65781 7.5909 5.65781 5.7681 5.66401C4.88907 5.66667 4.25486 6.27229 4.25486 7.08422C4.25486 7.89792 4.89262 8.49734 5.7681 8.50089C6.67462 8.50443 7.58026 8.50089 8.48679 8.50089V8.5Z" fill="#54AB26"/>
<path id="Vector_2" opacity="0.4" d="M24.8372 34C22.7483 33.065 20.8758 31.8139 19.2996 30.1466C17.7429 28.5006 16.6749 26.5996 16.3778 24.3215C16.321 23.8841 16.2944 23.4396 16.2917 22.9987C16.282 21.2066 16.2864 19.4145 16.2882 17.6224C16.2882 16.7246 16.6075 16.2863 17.4573 15.9977C19.8194 15.1955 22.1824 14.3951 24.5427 13.5849C24.949 13.445 25.3384 13.4397 25.7411 13.5778C28.144 14.3986 30.5469 15.2194 32.9525 16.0304C33.5051 16.2172 33.8235 16.6024 34 17.1337V23.9071C33.9823 23.9576 33.953 24.0071 33.9477 24.0585C33.741 26.1029 32.9055 27.8782 31.6104 29.4436C29.9313 31.4721 27.8353 32.9445 25.4359 34.0008H24.8381L24.8372 34ZM24.6616 24.0231C24.6092 23.9983 24.5862 23.993 24.572 23.9797C24.062 23.4732 23.5555 22.9632 23.0446 22.4585C22.4041 21.8264 21.5269 21.798 20.9512 22.3859C20.3764 22.973 20.4093 23.8221 21.0399 24.4552C21.9287 25.3494 22.8201 26.241 23.7134 27.13C24.4425 27.856 25.3668 27.7888 25.9956 26.9653C26.3983 26.4385 26.7922 25.9046 27.1904 25.3742C28.1786 24.0558 29.172 22.7428 30.1513 21.4182C30.6693 20.7187 30.5105 19.8112 29.8142 19.3552C29.1738 18.9364 28.3675 19.0895 27.877 19.7403C26.8055 21.1605 25.7402 22.586 24.6625 24.0231H24.6616Z" fill="#54AB26"/>
</g>
<defs>
<clipPath id="clip0_128_120">
<rect width="34" height="34" fill="white"/>
</clipPath>
</defs>
</svg>
