<svg width="39" height="56" viewBox="0 0 39 56" fill="none" xmlns="http://www.w3.org/2000/svg">
<path d="M33 0C29.6876 0 27 2.44792 27 5.46429C27 10.3214 33 17 33 17C33 17 39 10.3214 39 5.46429C39 2.44792 36.3124 0 33 0ZM33 8.5C32.5253 8.5 32.0613 8.35757 31.6666 8.09071C31.272 7.82386 30.9643 7.44457 30.7827 7.0008C30.601 6.55704 30.5535 6.06873 30.6461 5.59764C30.7387 5.12654 30.9673 4.69381 31.3029 4.35417C31.6386 4.01453 32.0662 3.78323 32.5318 3.68952C32.9973 3.59581 33.4799 3.64391 33.9184 3.82772C34.357 4.01153 34.7318 4.32281 34.9955 4.72219C35.2592 5.12156 35.4 5.5911 35.4 6.07143C35.3993 6.71531 35.1462 7.33262 34.6963 7.78791C34.2464 8.24321 33.6363 8.4993 33 8.5Z" fill="#557B43"/>
<g clip-path="url(#clip0_458_5602)">
<path d="M13.2322 18.7344C13.2322 17.9034 13.3944 17.0805 13.7093 16.3127C14.0243 15.5449 14.486 14.8473 15.068 14.2597C15.6501 13.6721 16.341 13.206 17.1015 12.8879C17.8619 12.5699 18.677 12.4062 19.5001 12.4062C20.3232 12.4062 21.1382 12.5699 21.8987 12.8879C22.6591 13.206 23.3501 13.6721 23.9321 14.2597C24.5142 14.8473 24.9758 15.5449 25.2908 16.3127C25.6058 17.0805 25.7679 17.9034 25.7679 18.7344C25.7679 19.5654 25.6058 20.3883 25.2908 21.156C24.9758 21.9238 24.5142 22.6214 23.9321 23.209C23.3501 23.7967 22.6591 24.2628 21.8987 24.5808C21.1382 24.8988 20.3232 25.0625 19.5001 25.0625C18.677 25.0625 17.8619 24.8988 17.1015 24.5808C16.341 24.2628 15.6501 23.7967 15.068 23.209C14.486 22.6214 14.0243 21.9238 13.7093 21.156C13.3944 20.3883 13.2322 19.5654 13.2322 18.7344ZM3.45611 23.7002C4.58781 22.127 6.76415 21.7842 8.32241 22.9268L11.4737 25.2383C13.8068 26.9521 16.6186 27.875 19.5001 27.875C22.3816 27.875 25.1934 26.9521 27.5264 25.2383L30.6778 22.918C32.236 21.7754 34.4124 22.127 35.5441 23.6914C36.6758 25.2559 36.3275 27.4619 34.778 28.6045L31.6266 30.9248C30.4427 31.7949 29.1804 32.5244 27.8572 33.1221V36.3125H11.1429V33.1221C9.81973 32.5332 8.55745 31.7949 7.37352 30.9248L4.22218 28.6045C2.66393 27.4619 2.32442 25.2646 3.45611 23.6914V23.7002ZM11.2735 39.9424L16.549 44.6006L14.2856 47.8701L16.401 50.0059C17.759 51.377 17.759 53.6006 16.401 54.9805C15.0429 56.3604 12.8405 56.3516 11.4737 54.9805L7.29518 50.7617C6.09384 49.5488 5.92843 47.6504 6.89473 46.2529L11.2648 39.9424H11.2735ZM22.4599 44.6006L27.7354 39.9424L32.1054 46.2529C33.0717 47.6504 32.9063 49.5488 31.7137 50.7529L27.5351 54.9717C26.1771 56.3428 23.9746 56.3428 22.6079 54.9717C21.2412 53.6006 21.2499 51.377 22.6079 49.9971L24.7233 47.8613L22.4599 44.5918V44.6006Z" fill="#557B43"/>
</g>
<defs>
<clipPath id="clip0_458_5602">
<rect width="39" height="45" fill="white" transform="translate(0 11)"/>
</clipPath>
</defs>
</svg>
