<svg width="30" height="30" viewBox="0 0 30 30" fill="none" xmlns="http://www.w3.org/2000/svg">
<g clip-path="url(#clip0_112_667)">
<path d="M29.9998 17.5827C29.4028 18.1643 28.8342 18.7193 28.2225 19.3161C27.5321 18.6404 26.8291 17.9543 26.0494 17.1921C26.5551 19.4044 27.0372 21.516 27.5331 23.6827H25.0232V27.3243H22.5192V23.7112H20.0015V27.3177H17.4935V23.6865H14.9875C15.8301 20.0126 16.6608 16.3862 17.4965 12.7418C18.1004 12.7418 18.6748 12.7418 19.2493 12.7418C21.0747 12.7418 22.9012 12.738 24.7267 12.7485C24.8799 12.7485 25.0753 12.8017 25.1794 12.9005C26.7652 14.421 28.3393 15.952 29.9154 17.482C29.9488 17.5143 29.9743 17.5542 29.9988 17.5846L29.9998 17.5827Z" fill="#577D44"/>
<path d="M25.0242 6.63415C25.0419 8.63551 23.3568 10.289 21.281 10.3071C19.2277 10.3252 17.5073 8.67257 17.4955 6.67217C17.4837 4.66986 19.1678 3.01917 21.2417 3.00016C23.3038 2.98116 25.0056 4.61664 25.0232 6.63415H25.0242Z" fill="#577D44"/>
<g opacity="0.4">
<path d="M7.46097 22.4966V27.3118H4.94517V16.2597C3.86501 17.3088 2.82217 18.3218 1.80583 19.3092C1.17541 18.6982 0.59998 18.1394 0 17.5578C0.026513 17.5283 0.0932866 17.4466 0.168898 17.3744C1.69291 15.8957 3.21495 14.4161 4.74682 12.9459C4.85483 12.8424 5.03257 12.7492 5.17888 12.7483C7.53069 12.7359 9.88249 12.7397 12.2343 12.7407C12.305 12.7407 12.3757 12.7511 12.4621 12.7587V27.3175H9.99542V22.4966H7.45998H7.46097Z" fill="#577D44"/>
<path d="M4.95205 6.60737C4.99722 4.5794 6.71173 2.95532 8.76011 3.00094C10.8654 3.0475 12.5308 4.7191 12.4778 6.73281C12.4258 8.72941 10.7015 10.3449 8.66682 10.305C6.58309 10.2642 4.90688 8.59637 4.95205 6.60737Z" fill="#577D44"/>
</g>
</g>
<defs>
<clipPath id="clip0_112_667">
<rect width="30" height="30" fill="white"/>
</clipPath>
</defs>
</svg>
