<svg width="32" height="36" viewBox="0 0 32 36" fill="none" xmlns="http://www.w3.org/2000/svg">
<path d="M17.9875 11.6875C17.6625 11.6062 17.3375 11.4437 17.0938 11.2C16.85 11.1187 16.7688 10.875 16.7688 10.7125C16.7688 10.55 16.85 10.3062 17.0125 10.225C17.2562 10.0625 17.5 9.9 17.7438 9.98125C18.2313 9.98125 18.6375 10.225 18.8812 10.55L19.6125 9.575C19.3688 9.33125 19.125 9.16875 18.8812 9.00625C18.6375 8.84375 18.3125 8.7625 17.9875 8.7625V7.625H17.0125V8.7625C16.6062 8.84375 16.2 9.0875 15.875 9.4125C15.55 9.81875 15.3063 10.3063 15.3875 10.7938C15.3875 11.2812 15.55 11.7688 15.875 12.0938C16.2812 12.5 16.85 12.7438 17.3375 12.9875C17.5813 13.0688 17.9062 13.2313 18.15 13.3938C18.3125 13.5563 18.3938 13.8 18.3938 14.0437C18.3938 14.2875 18.3125 14.5312 18.15 14.775C17.9062 15.0188 17.5813 15.1 17.3375 15.1C17.0125 15.1 16.6063 15.0188 16.3625 14.775C16.1188 14.6125 15.875 14.3687 15.7125 14.125L14.9 15.0188C15.1438 15.3438 15.3875 15.5875 15.7125 15.8313C16.1188 16.075 16.6062 16.3187 17.0938 16.3187V17.375H17.9875V16.1562C18.475 16.075 18.8813 15.8313 19.2063 15.5062C19.6125 15.1 19.8562 14.45 19.8562 13.8812C19.8562 13.3937 19.6937 12.825 19.2875 12.5C18.8812 12.0938 18.475 11.85 17.9875 11.6875ZM17.5 6C13.925 6 11 8.925 11 12.5C11 16.075 13.925 19 17.5 19C21.075 19 24 16.075 24 12.5C24 8.925 21.075 6 17.5 6ZM17.5 18.1062C14.4125 18.1062 11.8937 15.5875 11.8937 12.5C11.8937 9.4125 14.4125 6.89375 17.5 6.89375C20.5875 6.89375 23.1062 9.4125 23.1062 12.5C23.1062 15.5875 20.5875 18.1062 17.5 18.1062Z" fill="#557B43"/>
<path d="M30.1416 35H5.85693" stroke="#557B43" stroke-width="2" stroke-linecap="round" stroke-linejoin="round"/>
<path d="M1 30.1431C1 31.4312 1.51171 32.6666 2.42256 33.5774C2.87357 34.0284 3.40899 34.3862 3.99826 34.6303C4.58754 34.8744 5.21911 35 5.85693 35" stroke="#557B43" stroke-width="2" stroke-linecap="round" stroke-linejoin="round"/>
<path d="M1 30.1431C1 28.8549 1.51171 27.6195 2.42256 26.7087C3.33341 25.7978 4.56879 25.2861 5.85693 25.2861" stroke="#557B43" stroke-width="2" stroke-linecap="round" stroke-linejoin="round"/>
<path d="M30.1416 25.2861H5.85693" stroke="#557B43" stroke-width="2" stroke-linecap="round" stroke-linejoin="round"/>
<path d="M1 5.8584C1 5.22058 1.12563 4.589 1.36971 3.99973C1.6138 3.41046 1.97155 2.87504 2.42256 2.42403C2.87357 1.97302 3.40899 1.61526 3.99826 1.37118C4.58754 1.12709 5.21911 1.00146 5.85693 1.00146" stroke="#557B43" stroke-width="2" stroke-linecap="round" stroke-linejoin="round"/>
<path d="M30.1416 1.00147L5.85693 1.00146" stroke="#557B43" stroke-width="2" stroke-linecap="round" stroke-linejoin="round"/>
<path d="M1 5.8584V30.1431" stroke="#557B43" stroke-width="2" stroke-linecap="round" stroke-linejoin="round"/>
<path d="M5.85693 25.2861V1" stroke="#557B43" stroke-width="2" stroke-linecap="round" stroke-linejoin="round"/>
<path d="M30.1416 1.00146V25.2861" stroke="#557B43" stroke-width="2" stroke-linecap="round" stroke-linejoin="round"/>
<path d="M30.1417 25.2861C28.6142 28.4751 28.5302 31.7104 30.1417 35" stroke="#557B43" stroke-width="2" stroke-linecap="round" stroke-linejoin="round"/>
</svg>
