<svg width="38" height="34" viewBox="0 0 38 34" fill="none" xmlns="http://www.w3.org/2000/svg">
<g id="Layer_1" clip-path="url(#clip0_128_158)">
<path id="Vector" opacity="0.4" d="M37.0543 30.0292C36.7605 30.701 36.2453 30.9253 35.5233 30.9108C33.8608 30.876 32.1973 30.8992 30.5339 30.8992H30.1115C30.1047 28.562 29.3846 26.5448 27.5162 24.9074C27.9899 24.8359 28.3398 24.7412 28.6906 24.7363C30.0883 24.716 31.4869 24.7044 32.8846 24.7257C34.9114 24.7566 36.573 26.1659 36.9789 28.158C36.9983 28.2517 37.0292 28.3426 37.0543 28.4344V30.0292Z" fill="#F2819B"/>
<path id="Vector_2" d="M15.037 4.82908C15.8653 3.40823 16.6685 2.0212 17.4804 0.639977C17.811 0.0764678 18.4306 -0.158408 18.996 0.115131C19.2386 0.232085 19.4658 0.459229 19.6069 0.693138C20.3608 1.94194 21.0838 3.20912 21.8194 4.46855C21.8851 4.58164 21.9576 4.69086 22.0426 4.82715C22.8662 4.45985 23.6694 4.07903 24.4929 3.74943C24.7664 3.6402 25.1086 3.58511 25.3928 3.64117C25.9891 3.75813 26.339 4.3255 26.2288 4.92671C25.8374 7.07345 25.4382 9.21924 25.0303 11.364C24.9124 11.9846 24.4629 12.3403 23.8211 12.3413C20.3018 12.3451 16.7835 12.3451 13.2643 12.3413C12.6031 12.3413 12.1556 11.9817 12.0348 11.3438C11.6337 9.2231 11.2432 7.10052 10.8459 4.9789C10.7599 4.52075 10.8913 4.13895 11.2461 3.84705C11.6134 3.54451 12.0271 3.49715 12.4649 3.69143C13.3116 4.06646 14.1583 4.44052 15.0379 4.83005L15.037 4.82908Z" fill="#F2819B"/>
<path id="Vector_3" d="M18.5253 33.9992C16.1639 33.9992 13.8017 33.9992 11.4403 33.9992C10.4796 33.9992 10.0514 33.57 10.0494 32.6093C10.0485 31.8969 10.0407 31.1845 10.0523 30.4722C10.09 28.1099 11.9478 26.2686 14.3101 26.2628C17.118 26.255 19.9249 26.256 22.7327 26.2628C25.1211 26.2686 26.9731 28.0983 27.0127 30.4876C27.0253 31.2242 27.0185 31.9607 27.0146 32.6972C27.0098 33.542 26.5613 33.9972 25.7185 33.9982C23.3204 34.0021 20.9233 33.9992 18.5253 33.9992Z" fill="#F2819B"/>
<path id="Vector_4" d="M18.5494 14.6616C21.0905 14.6674 23.1667 16.7591 23.1618 19.3089C23.158 21.8722 21.0615 23.9533 18.4962 23.9397C15.9599 23.9262 13.8925 21.8268 13.9012 19.2741C13.9098 16.732 16.0025 14.6558 18.5484 14.6616H18.5494Z" fill="#F2819B"/>
<path id="Vector_5" opacity="0.4" d="M9.45687 24.9867C7.68806 26.5448 6.95926 28.5465 6.95443 30.8779C6.83651 30.8856 6.73309 30.8982 6.6287 30.8982C4.85794 30.8992 3.08719 30.9001 1.31644 30.8982C0.470691 30.8982 0.0347692 30.4275 0.00480558 29.5682C-0.0357903 28.4141 0.147858 27.3296 0.877617 26.3959C1.69533 25.3491 2.76726 24.7557 4.10112 24.7296C5.52198 24.7015 6.9438 24.716 8.36465 24.7344C8.71842 24.7392 9.07025 24.8311 9.42305 24.8832L9.45591 24.9847L9.45687 24.9867Z" fill="#F2819B"/>
<path id="Vector_6" opacity="0.4" d="M6.18606 23.1588C4.48007 23.1598 3.11141 21.7931 3.10658 20.0832C3.10271 18.3762 4.4704 16.9892 6.16673 16.9824C7.87756 16.9757 9.27521 18.3704 9.27135 20.0822C9.26748 21.7834 7.89012 23.1579 6.18606 23.1588Z" fill="#F2819B"/>
<path id="Vector_7" opacity="0.4" d="M33.9584 20.059C33.9652 21.7708 32.6091 23.1462 30.9022 23.1578C29.1981 23.1685 27.8072 21.8027 27.7937 20.1044C27.7801 18.3897 29.1672 16.9843 30.8741 16.9814C32.5734 16.9786 33.9507 18.353 33.9575 20.059H33.9584Z" fill="#F2819B"/>
</g>
<defs>
<clipPath id="clip0_128_158">
<rect width="37.0544" height="34" fill="white"/>
</clipPath>
</defs>
</svg>
