<svg width="33" height="34" viewBox="0 0 33 34" fill="none" xmlns="http://www.w3.org/2000/svg">
<g id="Group 1000002738">
<g id="Vector">
<path d="M31.7181 0C31.9118 0.17 32.1486 0.30901 32.2894 0.515312C32.5219 0.857082 32.4356 1.22276 32.2586 1.58312C30.8307 4.49525 29.4098 7.41004 27.9871 10.3248C26.796 12.7633 25.6039 15.2008 24.4172 17.6419C24.3301 17.8216 24.2535 17.9367 24.014 17.9367C16.7889 17.9288 9.5646 17.9297 2.33945 17.9297C2.28575 17.9297 2.23116 17.9252 2.09119 17.9181C2.15809 17.4869 2.18186 17.0584 2.29631 16.6564C2.78932 14.9122 3.90121 13.747 5.6144 13.1812C5.81777 13.1139 5.90756 13.0191 5.97007 12.8164C6.73863 10.3231 9.2327 8.8692 11.7673 9.43941C11.9715 9.48545 12.0983 9.46332 12.2585 9.31634C14.2429 7.50124 17.0583 7.51895 19.0338 9.3429C19.1113 9.41462 19.2389 9.47748 19.3375 9.46951C19.8164 9.43056 20.2945 9.31545 20.7708 9.32342C21.2356 9.33139 21.6995 9.45535 22.2075 9.53504C22.2427 9.46863 22.3008 9.36681 22.3519 9.26144C23.7173 6.46619 25.0863 3.6727 26.4412 0.872134C26.6252 0.491405 26.8426 0.170885 27.2379 0H27.7652C28.5514 0.498489 28.6518 0.868592 28.231 1.73099C27.6508 2.9201 27.0706 4.1101 26.4896 5.29921C25.6665 6.98327 24.8407 8.66644 24.0246 10.3549C23.977 10.4532 23.9524 10.6276 24.0061 10.6994C24.3186 11.1208 24.6584 11.5228 24.9921 11.9372C25.0352 11.8513 25.0907 11.745 25.1435 11.6361C26.8963 8.04931 28.6518 4.46426 30.3958 0.873019C30.5806 0.492291 30.7972 0.171771 31.1916 0.000885415C31.3677 0.000885415 31.5429 0.000885415 31.719 0.000885415L31.7181 0ZM14.6425 12.9448C14.6408 13.4911 15.0739 13.9373 15.6127 13.9444C16.1559 13.9515 16.6242 13.4796 16.6154 12.9368C16.6066 12.402 16.1515 11.9522 15.6206 11.954C15.0818 11.9558 14.6443 12.3994 14.6425 12.9448ZM10.6879 14.9254C10.6809 15.4735 11.1079 15.9233 11.6467 15.9366C12.189 15.9499 12.6617 15.4859 12.6608 14.9405C12.6608 14.4075 12.2083 13.9506 11.6775 13.9462C11.1387 13.9417 10.695 14.3809 10.6879 14.9254ZM19.5708 13.9462C19.032 13.9506 18.5971 14.3951 18.5963 14.9414C18.5963 15.4877 19.0312 15.9322 19.5699 15.9375C20.1131 15.9419 20.5806 15.4691 20.5691 14.9263C20.5577 14.3907 20.1017 13.9435 19.5708 13.9471V13.9462Z" fill="#C1A234"/>
<path d="M28.0109 14.7873C28.7486 15.7383 29.106 16.7494 29.121 17.9102H26.4896C26.994 16.8742 27.4906 15.856 28.0109 14.7873Z" fill="#C1A234"/>
</g>
<path id="Vector_2" opacity="0.4" d="M9.44309 33.9994C8.87965 33.7506 8.62171 33.3132 8.71502 32.705C8.82243 32.0064 8.57329 31.6584 7.90861 31.3281C4.08871 29.428 1.89132 26.2645 1.08227 22.0906C0.946692 21.3903 0.889468 20.6748 0.791748 19.9399H30.4609C30.35 20.7359 30.2839 21.516 30.1272 22.2774C29.2706 26.4327 27.0257 29.5432 23.2023 31.4034C22.6679 31.6637 22.4487 31.9409 22.5473 32.5022C22.5605 32.5775 22.5447 32.6572 22.5499 32.7342C22.5948 33.3487 22.3545 33.7825 21.7664 33.9994H9.44309Z" fill="#C1A234"/>
</g>
</svg>
