<svg width="34" height="34" viewBox="0 0 34 34" fill="none" xmlns="http://www.w3.org/2000/svg">
<g id="Layer_1" clip-path="url(#clip0_128_144)">
<path id="Vector" d="M4.37724 34.0001C3.88477 33.8487 3.36301 33.7566 2.90426 33.5352C1.02134 32.6277 -0.00442234 31.1287 1.43321e-05 29.0116C0.00711301 26.0774 0.582993 23.2795 2.11365 20.7286C2.92822 19.3712 3.96285 18.1945 5.06315 17.0674C6.11375 15.9907 7.18388 14.93 8.18124 13.8055C9.07656 12.7979 9.65244 11.6035 9.86096 10.2541C9.87072 10.1895 9.87516 10.1239 9.88581 10.0265C9.5779 10.0265 9.28065 10.0319 8.98339 10.0257C8.39154 10.0133 7.96207 9.58826 7.96562 9.02514C7.96828 8.46378 8.40041 8.0379 8.99493 8.03701C11.6294 8.03258 14.2639 8.03258 16.8984 8.03701C17.4947 8.0379 17.9242 8.4629 17.9268 9.02602C17.9286 9.59003 17.5009 10.0124 16.9073 10.0257C16.61 10.0319 16.3128 10.0265 16.0022 10.0265C16.1735 11.4671 16.7485 12.7085 17.6704 13.7533C18.7086 14.93 19.8257 16.0385 20.9216 17.163C22.194 18.4681 23.3573 19.8529 24.2021 21.4803C24.2881 21.645 24.368 21.8132 24.4745 22.0248C24.3316 22.0337 24.2296 22.0452 24.1275 22.0461C23.0867 22.0478 22.0467 22.0434 21.0059 22.0478C19.2215 22.0549 17.9313 23.3441 17.9286 25.1309C17.9242 27.7313 17.9197 30.3327 17.9366 32.9332C17.9393 33.2891 18.0608 33.6441 18.1274 34.0001H4.37724ZM11.9497 18.229C11.8894 18.2609 11.8504 18.2831 11.8104 18.3016C10.4297 18.9383 9.74827 20.2106 10.0198 21.6432C10.2789 23.0076 11.4422 23.9648 12.9311 24.0391C13.5239 24.0684 13.9507 24.4978 13.94 25.0538C13.9303 25.5683 13.5088 26.003 12.9941 26.0304C12.4431 26.0588 11.9977 25.6426 11.9489 25.0529C11.8974 24.4261 11.4706 24.0135 10.9036 24.0418C10.3375 24.0701 9.92574 24.5323 9.96212 25.1486C10.0331 26.3465 10.6285 27.2107 11.704 27.7313C11.8965 27.8243 11.9648 27.9182 11.9533 28.1236C11.9364 28.4211 11.9418 28.7212 11.9506 29.0196C11.9675 29.5854 12.3996 30.0148 12.9427 30.0157C13.4857 30.0166 13.9196 29.5889 13.9383 29.0232C13.948 28.7469 13.9596 28.468 13.9347 28.1935C13.9116 27.935 14.0066 27.8137 14.2408 27.7003C15.7777 26.9593 16.3855 25.1379 15.5852 23.6504C15.0386 22.6349 14.1619 22.1054 13.0075 22.0496C12.2905 22.0151 11.8122 21.4475 11.9781 20.8198C12.1041 20.3425 12.5363 20.0238 13.011 20.0574C13.5274 20.0937 13.8939 20.4869 13.94 21.0509C13.9888 21.6521 14.4148 22.0647 14.9685 22.0461C15.5364 22.0275 15.9605 21.5653 15.9268 20.9544C15.8629 19.7865 15.2986 18.9303 14.2613 18.3866C14.1566 18.3318 14.0483 18.2813 13.94 18.2273C13.94 17.8457 13.9445 17.4809 13.9392 17.1161C13.9303 16.506 13.4981 16.0624 12.9285 16.0713C12.3721 16.0801 11.9577 16.5184 11.9489 17.1134C11.9435 17.4879 11.948 17.8634 11.948 18.229H11.9497Z" fill="#EB7044"/>
<path id="Vector_2" opacity="0.5" d="M19.1886 0C19.2329 0.0283333 19.2755 0.0602083 19.3217 0.085C19.9783 0.431198 20.1176 1.13422 19.6216 1.68849C18.7201 2.69609 17.8984 3.76125 17.2302 4.93974C17.067 5.2275 16.9134 5.52146 16.775 5.82161C16.7005 5.98276 16.6126 6.0474 16.4272 6.0474C14.105 6.04031 11.7838 6.04563 9.46161 6.035C9.35247 6.035 9.1892 5.94026 9.14305 5.84464C8.39681 4.31109 7.40122 2.95375 6.2672 1.68849C5.77207 1.1351 5.91138 0.430312 6.56712 0.085C6.61415 0.0602083 6.65763 0.0283333 6.702 0C7.01168 0 7.32224 0 7.63192 0C8.72246 0.159375 9.72515 0.545417 10.5992 1.21745C11.9373 2.2463 13.94 2.26224 15.3216 1.20151C15.9551 0.715417 16.665 0.35151 17.4529 0.167344C17.72 0.105365 17.9907 0.0548958 18.2595 0C18.5692 0 18.8798 0 19.1895 0L19.1886 0Z" fill="#EB7044"/>
<path id="Vector_3" opacity="0.5" d="M34 27.2925C33.7356 27.868 33.2795 28.0354 32.6628 28.0318C28.8349 28.0132 25.0069 28.023 21.1781 28.0221C20.3582 28.0221 19.9855 27.6476 19.9855 26.8259C19.9855 26.2504 19.9819 25.6757 19.9864 25.1002C19.9917 24.4548 20.4007 24.0395 21.0458 24.0386C25.0069 24.0359 28.968 24.0395 32.929 24.0342C33.4685 24.0342 33.7755 24.3308 34.0009 24.7673V27.2907L34 27.2925Z" fill="#EB7044"/>
<path id="Vector_4" opacity="0.5" d="M20.7166 34.0001C20.1425 33.7354 19.9393 33.2821 19.9792 32.6631C20.0129 32.1346 19.9819 31.6024 19.9872 31.0712C19.9934 30.4292 20.406 30.0166 21.052 30.0166C25.0113 30.014 28.9706 30.0184 32.9299 30.0122C33.4685 30.0122 33.7755 30.3088 34.0009 30.7453V33.2688C33.842 33.5973 33.598 33.8399 33.2706 33.9992H20.7166V34.0001Z" fill="#EB7044"/>
<path id="Vector_5" d="M18.2587 0C17.9898 0.0557813 17.7201 0.105365 17.4521 0.167344C16.6641 0.350625 15.9543 0.715417 15.3207 1.20151C13.9382 2.26135 11.9355 2.2463 10.5983 1.21745C9.72518 0.545417 8.7216 0.159375 7.63196 0C11.1742 0 14.7164 0 18.2587 0Z" fill="white"/>
<path id="Vector_6" d="M33.2698 34C33.5972 33.8406 33.8412 33.598 34.0001 33.2695V34H33.2698Z" fill="white"/>
<path id="Vector_7" d="M11.9489 18.2292C11.9489 17.8635 11.9445 17.4881 11.9498 17.1136C11.9587 16.5186 12.3731 16.0803 12.9294 16.0714C13.4991 16.0626 13.9312 16.5062 13.9401 17.1162C13.9454 17.481 13.941 17.8458 13.941 18.2274C14.0501 18.2814 14.1575 18.331 14.2622 18.3868C15.2986 18.9304 15.8638 19.7866 15.9277 20.9545C15.9605 21.5654 15.5364 22.0276 14.9694 22.0462C14.4166 22.0648 13.9898 21.6522 13.941 21.051C13.8948 20.487 13.5284 20.0939 13.0119 20.0576C12.5363 20.0239 12.1051 20.3418 11.9791 20.8199C11.8131 21.4477 12.2923 22.0152 13.0084 22.0498C14.1628 22.1055 15.0395 22.635 15.5861 23.6506C16.3874 25.1381 15.7795 26.9594 14.2418 27.7005C14.0066 27.8138 13.9117 27.9342 13.9356 28.1937C13.9605 28.4681 13.9481 28.747 13.9392 29.0233C13.9197 29.5891 13.4858 30.0167 12.9436 30.0158C12.4006 30.015 11.9684 29.5864 11.9516 29.0198C11.9427 28.7214 11.9374 28.4212 11.9542 28.1237C11.9658 27.9183 11.8974 27.8244 11.7049 27.7315C10.6294 27.2117 10.034 26.3467 9.96305 25.1487C9.92667 24.5316 10.3384 24.0703 10.9045 24.0419C11.4715 24.0136 11.8974 24.4262 11.9498 25.0531C11.9986 25.6428 12.4432 26.0589 12.9951 26.0306C13.5097 26.004 13.9312 25.5684 13.941 25.054C13.9516 24.4979 13.5248 24.0694 12.9321 24.0393C11.4431 23.9649 10.2798 23.0078 10.0207 21.6433C9.74832 20.2107 10.4307 18.9384 11.8114 18.3018C11.8513 18.2832 11.8895 18.2611 11.9507 18.2292H11.9489Z" fill="white"/>
</g>
<defs>
<clipPath id="clip0_128_144">
<rect width="34" height="34" fill="white"/>
</clipPath>
</defs>
</svg>
