<svg width="26" height="34" viewBox="0 0 26 34" fill="none" xmlns="http://www.w3.org/2000/svg">
<g id="Layer_1" clip-path="url(#clip0_128_166)">
<path id="Vector" d="M4.70778 34.0002C4.13403 33.7355 3.94544 33.2813 3.97023 32.6624C4.00476 31.7929 3.97908 30.9208 3.97908 30.0159C2.99096 30.0159 2.03382 30.0132 1.07669 30.0168C0.681792 30.0185 0.363042 29.8742 0.153198 29.536C-0.260291 28.871 0.209865 28.037 1.01294 28.0263C1.98424 28.0131 2.95554 28.0237 3.95252 28.0237V26.0465C3.85424 26.0421 3.74799 26.0324 3.64174 26.0324C2.78023 26.0315 1.91872 26.0359 1.05809 26.0306C0.416167 26.0262 0.00533352 25.6127 0.00356269 24.9663C2.10198e-05 23.0193 2.10198e-05 21.0723 0.00356269 19.1244C0.0044481 18.4789 0.417938 18.0681 1.06164 18.0645C2.02054 18.0601 2.97945 18.0636 3.9782 18.0636C3.9782 17.7351 3.97466 17.4297 3.9782 17.1233C3.98705 16.5106 4.41205 16.067 4.9796 16.0723C5.53476 16.0776 5.95356 16.5142 5.96419 17.1074C5.9695 17.4146 5.96507 17.7219 5.96507 18.0459H19.8847C19.8847 17.7723 19.8847 17.4899 19.8847 17.2083C19.8874 16.531 20.2796 16.0785 20.8693 16.0723C21.4714 16.0661 21.8707 16.5239 21.8725 17.2225C21.8725 17.4872 21.8725 17.7511 21.8725 18.0477C21.9929 18.053 22.0982 18.0627 22.2045 18.0627C23.0545 18.0636 23.9054 18.061 24.7554 18.0645C25.4425 18.0672 25.8471 18.47 25.848 19.1571C25.8506 21.082 25.8506 23.0078 25.848 24.9327C25.8471 25.6215 25.4434 26.0288 24.7607 26.0315C23.8124 26.035 22.8641 26.0315 21.8946 26.0315V28.0237C22.6702 28.0237 23.4397 28.0237 24.2091 28.0237C24.4189 28.0237 24.6288 28.0193 24.8386 28.0246C25.423 28.0405 25.8568 28.477 25.848 29.0339C25.8391 29.5776 25.4115 30.007 24.8413 30.0123C23.87 30.0221 22.8987 30.015 21.8725 30.015V30.339C21.8725 31.1138 21.8459 31.8894 21.8804 32.6624C21.9079 33.2804 21.7157 33.7346 21.1429 34.0002H20.6125C20.0388 33.7355 19.8475 33.2813 19.875 32.6624C19.9095 31.8788 19.8838 31.0917 19.8821 30.3063C19.8821 30.2124 19.8697 30.1177 19.8635 30.0327H5.96684C5.96684 30.9208 5.94117 31.7929 5.9757 32.6624C5.9996 33.2804 5.81012 33.7346 5.23815 34.0002H4.70778ZM5.98101 27.9998H19.8688V26.0492H5.98101V27.9998Z" fill="#217687"/>
<path id="Vector_2" opacity="0.4" d="M12.3295 0C12.3693 0.0177083 12.4074 0.0416146 12.449 0.0513542C13.3698 0.255 13.6726 1.09969 13.0856 1.83193C11.4901 3.825 11.5361 6.47328 13.2503 8.35036C14.4855 9.7024 16.0438 10.1876 17.8438 9.8476C18.2387 9.77323 18.6071 9.7325 18.9364 10.0229C19.295 10.339 19.3898 10.7773 19.1622 11.2572C17.9935 13.7204 16.0774 15.2796 13.4079 15.787C9.10832 16.6042 5.08676 13.8798 4.14645 9.59172C3.19905 5.27443 6.18379 0.849115 10.5268 0.128385C10.7525 0.0903125 10.9774 0.0425 11.2032 0C11.5786 0 11.954 0 12.3304 0H12.3295Z" fill="#217687"/>
<path id="Vector_3" d="M5.23816 34.0003C5.81102 33.7346 6.0005 33.2813 5.97571 32.6624C5.94118 31.7929 5.96686 30.9208 5.96686 30.0327H19.8661C19.8723 30.1177 19.8847 30.2125 19.8847 30.3063C19.8865 31.0917 19.9122 31.8779 19.8776 32.6624C19.8502 33.2804 20.0414 33.7355 20.6152 34.0003H5.23816Z" fill="white"/>
<path id="Vector_4" opacity="0.4" d="M25.121 0C25.8408 0.444479 25.9559 0.919948 25.5203 1.65573C25.268 2.08161 25.0138 2.50661 24.7509 2.94932C24.9297 2.99271 25.0909 3.01307 25.237 3.07151C25.6567 3.23708 25.9152 3.7099 25.8382 4.14286C25.7549 4.60682 25.3742 4.96365 24.8987 4.97516C24.2152 4.99109 23.5308 4.99641 22.8472 4.97516C22.1336 4.95214 21.744 4.165 22.1026 3.49828C22.2381 3.24594 22.3939 3.00422 22.54 2.75719C22.6808 2.52167 22.8216 2.28615 22.9207 2.12057C22.617 1.9249 22.277 1.79474 22.0672 1.55125C21.6926 1.1174 21.86 0.450677 22.3532 0.147865C22.4346 0.0973958 22.5187 0.0495833 22.6011 0.000885417C23.4405 0.000885417 24.2798 0.000885417 25.1192 0.000885417L25.121 0Z" fill="#217687"/>
<path id="Vector_5" opacity="0.4" d="M17.2187 3.99844C16.7875 3.97719 16.4617 3.84172 16.2545 3.49995C15.8569 2.84297 16.3094 2.01688 17.0903 1.99651C17.7517 1.9788 18.4149 1.98058 19.0763 1.99651C19.8732 2.01511 20.3265 2.87042 19.9024 3.55396C19.6129 4.02058 19.2994 4.47302 18.9834 4.95203C19.1206 4.97682 19.2268 4.98745 19.3295 5.01578C19.8192 5.1486 20.1362 5.60281 20.0795 6.08448C20.0219 6.57412 19.6226 6.9575 19.1179 6.96813C18.4344 6.98229 17.7491 6.98406 17.0655 6.96813C16.212 6.94865 15.8074 6.21818 16.2474 5.48328C16.5414 4.99188 16.8743 4.52438 17.2196 3.99933L17.2187 3.99844Z" fill="#217687"/>
</g>
<defs>
<clipPath id="clip0_128_166">
<rect width="25.8515" height="34" fill="white"/>
</clipPath>
</defs>
</svg>
