<svg width="36" height="35" viewBox="0 0 36 35" fill="none" xmlns="http://www.w3.org/2000/svg">
<g id="Group 1000002735">
<g id="Vector">
<path d="M35.8615 22.9992C35.0721 19.3655 34.288 15.7264 33.4934 12.0927C33.104 10.3215 31.8369 9.23726 30.0816 9.21042C28.0044 9.18359 25.9272 9.18359 23.8499 9.21042C22.1726 9.23189 20.8847 10.2946 20.4796 11.9263C20.3654 12.3825 20.2875 12.8441 20.1733 13.295C20.1213 13.499 20.1836 13.6224 20.3238 13.762C21.9077 15.3668 21.6377 17.97 19.763 19.2045C19.6903 19.2528 19.6228 19.3065 19.5501 19.3548C20.3446 19.4299 21.1236 19.4997 21.9285 19.5748C22.0895 18.92 22.2609 18.2115 22.4322 17.503C22.4945 18.2384 22.4842 18.9576 22.5049 19.6768C22.5049 19.8217 22.6088 20.015 22.723 20.1008C23.4241 20.6215 23.9642 21.2763 24.2342 22.1243C24.8055 23.917 25.3819 25.7044 25.9116 27.5132C26.353 29.0161 25.3871 30.5565 23.8811 30.7819C23.4345 30.8463 22.9671 30.7605 22.5153 30.739V31.952H26.3893C26.3893 31.6729 26.3893 31.4206 26.3893 31.1684C26.3997 30.7605 26.6334 30.4975 26.971 30.4975C27.3085 30.4975 27.5318 30.7605 27.5474 31.1737C27.5474 31.3294 27.563 31.4904 27.5474 31.6407C27.5162 31.9198 27.6357 31.9842 27.8901 31.9789C28.8716 31.9681 29.8479 31.9789 30.8294 31.9789H31.4578V17.4762C31.7278 18.3833 31.9407 19.2904 32.1588 20.2028C32.4444 21.4051 32.7197 22.6074 33.0105 23.8097C33.1767 24.5075 33.696 24.969 34.3295 25.012C35.0202 25.0603 35.5707 24.7007 35.8459 24.0298C35.8719 23.9654 35.9082 23.9063 35.9394 23.8473V23.1978C35.9134 23.1334 35.8822 23.069 35.8667 22.9992H35.8615Z" fill="#3F5AE8"/>
<path d="M13.2665 30.7175C12.2954 31.0074 11.4281 30.7873 10.7219 30.0573C10.0001 29.3113 9.80791 28.3934 10.1091 27.3951C10.6232 25.699 11.1633 24.0083 11.6878 22.3176C11.9682 21.4158 12.4771 20.6859 13.2405 20.1545C13.4379 20.015 13.5209 19.8754 13.5158 19.6285C13.5002 18.9254 13.5106 18.2169 13.5106 17.5138C13.5313 17.5138 13.5521 17.5084 13.5729 17.503C13.7442 18.2169 13.9208 18.9361 14.0714 19.5748C14.8867 19.4997 15.6605 19.4299 16.4654 19.3548C16.3408 19.2743 16.2421 19.2152 16.1434 19.1508C14.5699 18.0827 14.0818 15.8177 15.2554 14.3148C15.8007 13.617 15.8474 13.032 15.5982 12.2859C15.5774 12.2269 15.567 12.1679 15.5514 12.1142C15.1516 10.3376 13.9052 9.23726 12.15 9.21579C10.0624 9.18359 7.96957 9.18359 5.88196 9.21579C4.14229 9.24263 2.88557 10.3376 2.50128 12.0873C1.91447 14.7603 1.34323 17.4386 0.756416 20.1116C0.533115 21.1421 0.294234 22.1673 0.0605469 23.1924V23.8419C0.0605469 23.8419 0.102091 23.8687 0.107284 23.8902C0.434447 24.706 0.922594 25.0603 1.6652 25.0066C2.35068 24.9583 2.81287 24.4967 3.0102 23.6594C3.3114 22.3873 3.6126 21.1153 3.91379 19.8432C4.10074 19.0488 4.29289 18.2545 4.48503 17.4547C4.5058 17.4547 4.53177 17.4601 4.55254 17.4655V31.9198C4.60447 31.9466 4.62524 31.9627 4.64601 31.9627C5.83522 31.9627 7.02443 31.9681 8.21364 31.9789C8.41617 31.9789 8.44214 31.8715 8.43695 31.7051C8.43695 31.2704 8.42656 30.8356 8.44214 30.4062C8.45772 30.0198 8.74853 29.7836 9.10166 29.8373C9.40805 29.8802 9.58461 30.1217 9.5898 30.5189C9.595 30.9966 9.5898 31.469 9.5898 31.9466H13.4638V30.6746C13.4327 30.6692 13.4171 30.6638 13.4067 30.6638C13.3496 30.6799 13.2925 30.696 13.2405 30.7121L13.2665 30.7175Z" fill="#3F5AE8"/>
<path d="M26.9658 6.16175C28.612 6.16175 29.9518 4.79844 29.9674 3.10235C29.9829 1.39552 28.6379 0 26.9762 0C25.3196 0 23.9642 1.39552 23.9746 3.09161C23.985 4.7877 25.3248 6.15638 26.9658 6.15638V6.16175Z" fill="#3F5AE8"/>
<path d="M9.03415 6.16175C10.6959 6.16175 12.0461 4.7716 12.0357 3.07014C12.0253 1.37405 10.6959 0 9.04973 0C7.39314 0 6.03775 1.39015 6.04814 3.09161C6.05333 4.78234 7.39314 6.16175 9.03934 6.16175H9.03415Z" fill="#3F5AE8"/>
</g>
<g id="Vector_2" opacity="0.4">
<path d="M23.9227 29.5532C24.6393 29.3009 25.0184 28.5334 24.7744 27.7444C24.2499 26.0376 23.7254 24.3307 23.1801 22.6347C22.7906 21.4216 21.7935 20.6434 20.5472 20.6219C18.8543 20.5897 17.1613 20.5843 15.4736 20.6219C14.2428 20.6541 13.3081 21.2821 12.8926 22.4844C12.2799 24.261 11.7502 26.0644 11.2049 27.8678C11.0024 28.5388 11.3711 29.2526 11.9994 29.521C12.6382 29.7947 13.386 29.521 13.7183 28.8984C13.8118 28.7213 13.8741 28.5227 13.9468 28.3348C14.1857 27.6907 14.4246 27.0466 14.6635 26.4026C14.6894 26.4026 14.7102 26.4133 14.7362 26.4187V34.824H17.4262V34.4214C17.4262 33.3962 17.4262 32.3765 17.4262 31.3513C17.4262 31.2439 17.4262 31.1366 17.4314 31.0239C17.4625 30.6696 17.7014 30.4281 18.0182 30.4335C18.3298 30.4388 18.579 30.6911 18.579 31.0453C18.5894 32.1779 18.579 33.3104 18.579 34.4375C18.579 34.561 18.579 34.6898 18.579 34.8132H21.2794V26.4562C21.3054 26.4562 21.3314 26.4455 21.3573 26.4401C21.6326 27.1862 21.9026 27.9376 22.1934 28.6837C22.4842 29.4459 23.2112 29.8001 23.9227 29.5532Z" fill="#3F5AE8"/>
<path d="M18.0078 18.5125C19.2334 18.5125 20.1941 17.5034 20.1837 16.2314C20.1733 14.9861 19.2074 14.0039 17.9922 14.0039C16.7822 14.0039 15.8215 14.9969 15.8163 16.2475C15.8163 17.5142 16.7822 18.5125 18.0078 18.5125Z" fill="#3F5AE8"/>
</g>
</g>
</svg>
