<svg width="30" height="30" viewBox="0 0 30 30" fill="none" xmlns="http://www.w3.org/2000/svg">
<path d="M28.3961 19.4994C27.8041 16.7741 27.216 14.0448 26.6201 11.3195C26.328 9.9911 25.3776 9.17795 24.0612 9.15782C22.5033 9.13769 20.9454 9.13769 19.3875 9.15782C18.1294 9.17392 17.1635 9.97098 16.8597 11.1947C16.774 11.5369 16.7156 11.8831 16.6299 12.2213C16.591 12.3742 16.6377 12.4668 16.7429 12.5715C17.9308 13.7751 17.7283 15.7275 16.3223 16.6534C16.2677 16.6896 16.2171 16.7299 16.1626 16.7661C16.7585 16.8224 17.3427 16.8748 17.9464 16.9311C18.0671 16.44 18.1956 15.9086 18.3242 15.3773C18.3709 15.9288 18.3631 16.4682 18.3787 17.0076C18.3787 17.1163 18.4566 17.2612 18.5423 17.3256C19.0681 17.7161 19.4731 18.2072 19.6757 18.8433C20.1041 20.1878 20.5364 21.5283 20.9337 22.8849C21.2647 24.012 20.5403 25.1674 19.4108 25.3364C19.0759 25.3847 18.7253 25.3203 18.3865 25.3042V26.214H21.292C21.292 26.0047 21.292 25.8155 21.292 25.6263C21.2998 25.3203 21.4751 25.1231 21.7282 25.1231C21.9814 25.1231 22.1489 25.3203 22.1605 25.6303C22.1605 25.747 22.1722 25.8678 22.1605 25.9805C22.1372 26.1899 22.2268 26.2382 22.4176 26.2341C23.1537 26.2261 23.8859 26.2341 24.6221 26.2341H25.0933V15.3571C25.2959 16.0375 25.4555 16.7178 25.6191 17.4021C25.8333 18.3038 26.0398 19.2056 26.2579 20.1073C26.3825 20.6306 26.772 20.9768 27.2471 21.009C27.7651 21.0452 28.178 20.7755 28.3844 20.2723C28.4039 20.224 28.4312 20.1797 28.4545 20.1355V19.6484C28.4351 19.6001 28.4117 19.5517 28.4 19.4994H28.3961Z" fill="#577D44"/>
<path d="M11.4499 25.2881C10.7215 25.5055 10.0711 25.3405 9.54142 24.793C9.00004 24.2334 8.85593 23.5451 9.08183 22.7963C9.46742 21.5243 9.87248 20.2562 10.2658 18.9882C10.4762 18.3119 10.8579 17.7644 11.4304 17.3659C11.5784 17.2612 11.6407 17.1566 11.6368 16.9714C11.6251 16.444 11.6329 15.9127 11.6329 15.3853C11.6485 15.3853 11.6641 15.3813 11.6797 15.3773C11.8082 15.9127 11.9406 16.4521 12.0536 16.9311C12.665 16.8748 13.2454 16.8224 13.8491 16.7661C13.7556 16.7057 13.6816 16.6614 13.6076 16.6131C12.4275 15.812 12.0613 14.1133 12.9416 12.9861C13.3505 12.4628 13.3856 12.024 13.1986 11.4644C13.183 11.4202 13.1753 11.3759 13.1636 11.3356C12.8637 10.0032 11.9289 9.17795 10.6125 9.16184C9.04678 9.13769 7.47718 9.13769 5.91147 9.16184C4.60672 9.18197 3.66418 10.0032 3.37596 11.3155C2.93585 13.3202 2.50742 15.329 2.06731 17.3337C1.89984 18.1066 1.72068 18.8755 1.54541 19.6443V20.1314C1.54541 20.1314 1.57657 20.1516 1.58046 20.1677C1.82584 20.7795 2.19195 21.0452 2.7489 21.005C3.26301 20.9687 3.60965 20.6225 3.75765 19.9946C3.98355 19.0405 4.20945 18.0865 4.43535 17.1324C4.57556 16.5366 4.71967 15.9408 4.86377 15.341C4.87935 15.341 4.89883 15.3451 4.91441 15.3491V26.1899C4.95335 26.21 4.96893 26.2221 4.98451 26.2221C5.87642 26.2221 6.76833 26.2261 7.66023 26.2341C7.81213 26.2341 7.8316 26.1536 7.82771 26.0288C7.82771 25.7028 7.81992 25.3767 7.8316 25.0547C7.84329 24.7648 8.0614 24.5877 8.32624 24.6279C8.55604 24.6602 8.68846 24.8413 8.69235 25.1392C8.69625 25.4975 8.69235 25.8517 8.69235 26.21H11.5979V25.2559C11.5745 25.2519 11.5628 25.2479 11.555 25.2479C11.5122 25.26 11.4693 25.272 11.4304 25.2841L11.4499 25.2881Z" fill="#577D44"/>
<path d="M21.7243 6.87131C22.959 6.87131 23.9638 5.84883 23.9755 4.57676C23.9872 3.29664 22.9785 2.25 21.7321 2.25C20.4897 2.25 19.4731 3.29664 19.4809 4.56871C19.4887 5.84078 20.4936 6.86729 21.7243 6.86729V6.87131Z" fill="#577D44"/>
<path d="M8.27561 6.87131C9.52194 6.87131 10.5346 5.8287 10.5268 4.55261C10.519 3.28054 9.52194 2.25 8.28729 2.25C7.04486 2.25 6.02832 3.29261 6.03611 4.56871C6.04 5.83675 7.04486 6.87131 8.2795 6.87131H8.27561Z" fill="#577D44"/>
<g opacity="0.4">
<path d="M19.4422 24.4149C19.9797 24.2257 20.264 23.6501 20.0809 23.0583C19.6876 21.7782 19.2942 20.4981 18.8852 19.226C18.5931 18.3162 17.8453 17.7325 16.9106 17.7164C15.6409 17.6923 14.3712 17.6882 13.1054 17.7164C12.1823 17.7406 11.4812 18.2116 11.1697 19.1133C10.7101 20.4457 10.3128 21.7983 9.90386 23.1509C9.75196 23.6541 10.0285 24.1895 10.4998 24.3908C10.9788 24.5961 11.5397 24.3908 11.7889 23.9238C11.859 23.7909 11.9058 23.642 11.9603 23.5011C12.1395 23.018 12.3186 22.535 12.4978 22.0519C12.5173 22.0519 12.5328 22.06 12.5523 22.064V28.368H14.5698V28.0661C14.5698 27.2972 14.5698 26.5323 14.5698 25.7635C14.5698 25.683 14.5698 25.6024 14.5737 25.5179C14.5971 25.2522 14.7762 25.0711 15.0138 25.0751C15.2475 25.0791 15.4345 25.2683 15.4345 25.534C15.4423 26.3834 15.4345 27.2328 15.4345 28.0781C15.4345 28.1707 15.4345 28.2673 15.4345 28.3599H17.4598V22.0922C17.4792 22.0922 17.4987 22.0841 17.5182 22.0801C17.7246 22.6396 17.9271 23.2032 18.1452 23.7628C18.3633 24.3344 18.9086 24.6001 19.4422 24.4149Z" fill="#577D44"/>
<path d="M15.006 16.1344C15.9252 16.1344 16.6457 15.3776 16.638 14.4235C16.6302 13.4896 15.9057 12.7529 14.9944 12.7529C14.0869 12.7529 13.3663 13.4977 13.3624 14.4356C13.3624 15.3856 14.0869 16.1344 15.006 16.1344Z" fill="#577D44"/>
</g>
</svg>
