<svg width="35" height="35" viewBox="0 0 35 35" fill="none" xmlns="http://www.w3.org/2000/svg">
<g id="Group 1000002739">
<g id="Vector">
<path d="M2.77903 10.391C4.94256 10.391 7.10609 10.3937 9.27053 10.3864C9.51711 10.3864 9.77009 10.3527 10.0085 10.2889C16.4442 8.56909 22.8782 6.84379 29.3122 5.1194C29.956 4.94714 30.599 4.77124 31.2876 4.58531C31.0136 3.64109 30.799 2.72056 30.4766 1.83923C30.167 0.99435 29.4985 0.459351 28.6519 0.160408C28.471 0.0966096 28.2829 0.0528619 28.0984 0H27.2098C27.1824 0.0182282 27.1569 0.0455706 27.1267 0.0537733C25.6874 0.435655 24.2472 0.812979 22.8088 1.19759C16.7127 2.82902 10.6194 4.46409 4.52429 6.09279C2.62013 6.60226 1.6685 8.51441 2.41921 10.391H2.77903Z" fill="#54AB26"/>
<path d="M34.9589 18.406C34.4265 16.4063 33.8949 14.4067 33.3625 12.407C33.3022 12.1801 33.2401 11.9522 33.1789 11.7244C32.9954 11.0463 31.9725 7.23023 31.7963 6.57583C27.0975 7.83449 22.4453 9.0813 17.7931 10.3281C17.7986 10.3491 17.8041 10.37 17.8096 10.391C20.2242 10.391 23.8271 10.3946 26.2418 10.3864C26.5212 10.3855 28.1614 10.3919 29.6172 11.5995C30.8729 12.6905 31.4602 14.0722 31.4492 15.731C31.4355 17.7698 31.4456 19.8086 31.4456 21.8474V22.2521C32.0227 22.0826 32.5588 21.9659 33.0639 21.7691C34.0027 21.4027 34.6027 20.7045 34.8831 19.7348C34.9205 19.6045 34.9607 19.476 35 19.3456V18.457C34.9854 18.4406 34.9625 18.4251 34.9571 18.406H34.9589Z" fill="#54AB26"/>
</g>
<g id="Vector_2" opacity="0.4">
<path d="M26.3322 12.4457C23.9751 12.432 21.617 12.442 19.2599 12.442C13.941 12.442 8.62215 12.442 3.30328 12.442C1.28497 12.442 0 13.7308 0 15.7541C0 21.0385 0 26.3219 0 31.6063C0 33.451 0.81372 34.4982 2.60829 34.9657C2.62929 34.9712 2.64756 34.9885 2.66674 35.0004H26.7304C26.9368 34.9402 27.1459 34.891 27.3478 34.819C28.5679 34.3843 29.3898 33.255 29.3917 31.948C29.3999 26.4586 29.4026 20.9701 29.3898 15.4807C29.3862 13.7909 28.0281 12.4566 26.3322 12.4457ZM3.07679 16.6546C3.07862 15.9291 3.49324 15.5189 4.2266 15.5189C6.423 15.5171 8.61941 15.5171 10.8167 15.5189C11.5473 15.5189 11.9611 15.9309 11.9629 16.6582C11.9656 17.9551 11.9665 19.253 11.9629 20.5499C11.9611 21.2526 11.54 21.6673 10.8304 21.6692C9.71533 21.6719 8.59932 21.6692 7.48422 21.6692C6.40291 21.6692 5.3216 21.671 4.2403 21.6692C3.48685 21.6682 3.07862 21.2617 3.07679 20.5117C3.07497 19.2257 3.07405 17.9397 3.07679 16.6537V16.6546ZM7.17645 26.7876C7.18101 27.3454 6.74447 27.8066 6.16637 27.8184C5.47412 27.833 4.78004 27.8321 4.08778 27.8184C3.51242 27.8066 3.07314 27.3445 3.07679 26.7885C3.08136 26.2326 3.52338 25.7896 4.10331 25.7732C4.44395 25.7641 4.7846 25.7714 5.12616 25.7714C5.46681 25.7714 5.80837 25.7641 6.14902 25.7732C6.73077 25.7887 7.17188 26.2299 7.17645 26.7876ZM10.8377 31.9225C9.72263 31.9253 8.60754 31.9225 7.49335 31.9225C6.40108 31.9225 5.30882 31.9244 4.21655 31.9225C3.53525 31.9207 3.06675 31.4896 3.07679 30.8799C3.08684 30.2856 3.54987 29.8737 4.21746 29.8728C6.42483 29.8709 8.63128 29.8709 10.8386 29.8728C11.4999 29.8728 11.962 30.3002 11.9611 30.8972C11.9611 31.4951 11.4989 31.9198 10.8377 31.9216V31.9225ZM12.2853 27.8194C11.6149 27.8294 10.9446 27.8285 10.2742 27.8194C9.67332 27.8112 9.22491 27.3591 9.22856 26.7885C9.23221 26.2198 9.68428 25.7833 10.2889 25.7723C10.6185 25.7659 10.9473 25.7714 11.277 25.7714C11.6067 25.7714 11.9364 25.7669 12.2652 25.7723C12.8725 25.7833 13.3218 26.2153 13.3273 26.7867C13.3328 27.3591 12.8862 27.8102 12.2843 27.8194H12.2853ZM18.4407 27.8194C17.7703 27.8294 17.1 27.8285 16.4297 27.8194C15.8278 27.8112 15.3794 27.3618 15.3821 26.7913C15.3849 26.2217 15.836 25.7842 16.4397 25.7723C16.7694 25.7659 17.0982 25.7714 17.4279 25.7714C17.7685 25.7714 18.1101 25.7641 18.4507 25.7732C19.0334 25.7887 19.4754 26.2262 19.4818 26.784C19.4882 27.3564 19.0425 27.8102 18.4416 27.8194H18.4407ZM25.2473 18.0226C24.6902 18.0299 24.1331 18.0244 23.576 18.0244C23.0308 18.0244 22.4846 18.029 21.9394 18.0235C21.3083 18.0171 20.8517 17.5833 20.8508 17C20.8508 16.4167 21.3083 15.9783 21.9376 15.9756C23.0399 15.971 24.1431 15.9701 25.2454 15.9756C25.8564 15.9792 26.3066 16.4094 26.3167 16.9809C26.3267 17.566 25.8719 18.0144 25.2463 18.0226H25.2473Z" fill="#54AB26"/>
<path d="M5.15539 17.5924V19.6012H9.89798V17.5924H5.15539Z" fill="#54AB26"/>
</g>
</g>
</svg>
