<svg width="44" height="44" viewBox="0 0 44 44" fill="none" xmlns="http://www.w3.org/2000/svg">
<path d="M32.0939 16.2232C29.4001 16.2076 26.7051 16.219 24.0113 16.219C17.9326 16.219 11.8539 16.219 5.77518 16.219C3.46853 16.219 2 17.6919 2 20.0043C2 26.0435 2 32.0818 2 38.121C2 40.2293 2.92997 41.4261 4.9809 41.9604C5.00491 41.9667 5.02578 41.9865 5.0477 42H32.549C32.7849 41.9313 33.0239 41.875 33.2546 41.7927C34.649 41.2959 35.5884 40.0053 35.5904 38.5116C35.5998 32.238 35.603 25.9654 35.5884 19.6918C35.5842 17.7606 34.0321 16.2357 32.0939 16.2232ZM5.51633 21.0334C5.51842 20.2043 5.99228 19.7355 6.83039 19.7355C9.34057 19.7334 11.8507 19.7334 14.362 19.7355C15.197 19.7355 15.6698 20.2063 15.6719 21.0375C15.675 22.5198 15.676 24.003 15.6719 25.4852C15.6698 26.2883 15.1886 26.7622 14.3776 26.7643C13.1032 26.7675 11.8278 26.7643 10.5534 26.7643C9.31761 26.7643 8.08183 26.7664 6.84605 26.7643C5.98497 26.7633 5.51842 26.2987 5.51633 25.4415C5.51425 23.9718 5.5132 22.5021 5.51633 21.0323V21.0334ZM10.2016 32.614C10.2069 33.2515 9.70796 33.7786 9.04728 33.7921C8.25613 33.8088 7.4629 33.8077 6.67175 33.7921C6.01419 33.7786 5.51216 33.2505 5.51633 32.6151C5.52155 31.9797 6.02672 31.4735 6.68949 31.4547C7.0788 31.4443 7.46811 31.4526 7.85847 31.4526C8.24778 31.4526 8.63814 31.4443 9.02745 31.4547C9.69231 31.4724 10.1964 31.9766 10.2016 32.614ZM14.386 38.4825C13.1116 38.4856 11.8372 38.4825 10.5638 38.4825C9.31552 38.4825 8.06722 38.4846 6.81891 38.4825C6.04029 38.4804 5.50485 37.9877 5.51633 37.2909C5.52782 36.6117 6.05699 36.1409 6.81996 36.1399C9.34266 36.1378 11.8643 36.1378 14.387 36.1399C15.1427 36.1399 15.6708 36.6284 15.6698 37.3107C15.6698 37.994 15.1416 38.4793 14.386 38.4814V38.4825ZM16.0403 33.7931C15.2742 33.8046 14.5081 33.8036 13.742 33.7931C13.0552 33.7838 12.5427 33.2671 12.5469 32.6151C12.5511 31.9651 13.0677 31.4662 13.7587 31.4537C14.1355 31.4464 14.5112 31.4526 14.888 31.4526C15.2648 31.4526 15.6416 31.4474 16.0173 31.4537C16.7114 31.4662 17.2249 31.9599 17.2312 32.613C17.2374 33.2671 16.7271 33.7827 16.0392 33.7931H16.0403ZM23.075 33.7931C22.3089 33.8046 21.5428 33.8036 20.7767 33.7931C20.0889 33.7838 19.5765 33.2702 19.5796 32.6182C19.5827 31.9672 20.0983 31.4672 20.7882 31.4537C21.165 31.4464 21.5408 31.4526 21.9175 31.4526C22.3069 31.4526 22.6972 31.4443 23.0865 31.4547C23.7524 31.4724 24.2576 31.9724 24.2649 32.6099C24.2722 33.264 23.7629 33.7827 23.0761 33.7931H23.075ZM30.854 22.5968C30.2173 22.6052 29.5806 22.5989 28.944 22.5989C28.3208 22.5989 27.6967 22.6041 27.0736 22.5979C26.3524 22.5906 25.8305 22.0948 25.8295 21.4282C25.8295 20.7615 26.3524 20.2605 27.0715 20.2574C28.3313 20.2522 29.5921 20.2511 30.8519 20.2574C31.5502 20.2615 32.0647 20.7532 32.0762 21.4063C32.0877 22.075 31.5679 22.5875 30.8529 22.5968H30.854Z" fill="#eb6f45"/>
<path d="M5.17608 13.8754C7.64868 13.8754 10.1213 13.8785 12.5949 13.8702C12.8767 13.8702 13.1658 13.8317 13.4383 13.7588C20.7934 11.7932 28.1465 9.82147 35.4996 7.85074C36.2355 7.65387 36.9703 7.45284 37.7572 7.24035C37.4441 6.16124 37.1988 5.10921 36.8304 4.10197C36.4766 3.1364 35.7126 2.52497 34.745 2.18332C34.5384 2.11041 34.3233 2.06041 34.1125 2H33.097C33.0657 2.02083 33.0364 2.05208 33.002 2.06146C31.3571 2.49789 29.7111 2.92912 28.0672 3.36868C21.1003 5.23316 14.1365 7.10182 7.17065 8.96318C4.99447 9.54544 3.9069 11.7307 4.76485 13.8754H5.17608Z" fill="#557b43"/>
<path d="M41.953 23.0354C41.3445 20.7501 40.7371 18.4648 40.1286 16.1795C40.0597 15.9201 39.9887 15.6597 39.9188 15.3993C39.709 14.6243 38.54 10.2631 38.3386 9.51523C32.9686 10.9537 27.6518 12.3786 22.335 13.8036C22.3413 13.8275 22.3476 13.8515 22.3538 13.8754C25.1135 13.8754 29.231 13.8796 31.9906 13.8702C32.31 13.8692 34.1845 13.8765 35.8482 15.2566C37.2834 16.5034 37.9545 18.0825 37.942 19.9782C37.9263 22.3083 37.9378 24.6384 37.9378 26.9685V27.431C38.5974 27.2372 39.2101 27.1039 39.7873 26.8789C40.8602 26.4602 41.546 25.6623 41.8664 24.554C41.9092 24.4051 41.9551 24.2582 42 24.1093V23.0937C41.9833 23.0749 41.9572 23.0572 41.9509 23.0354H41.953Z" fill="#557b43"/>
<path d="M7.89187 22.1052V24.4009H13.312V22.1052H7.89187Z" fill="#eb6f45"/>
</svg>
