<svg width="44" height="55" viewBox="0 0 44 55" fill="none" xmlns="http://www.w3.org/2000/svg">
<path d="M11.0002 0C12.1672 0 13.2863 0.460936 14.1115 1.28141C14.9366 2.10188 15.4002 3.21468 15.4002 4.375C15.4002 5.53532 14.9366 6.64812 14.1115 7.46859C13.2863 8.28906 12.1672 8.75 11.0002 8.75C9.83326 8.75 8.7141 8.28906 7.88894 7.46859C7.06378 6.64812 6.60021 5.53532 6.60021 4.375C6.60021 3.21468 7.06378 2.10188 7.88894 1.28141C8.7141 0.460936 9.83326 0 11.0002 0ZM6.05021 32.8125V27.3438H4.82646C4.07708 27.3438 3.54771 26.6123 3.78146 25.9014L5.91958 19.5166L3.95333 22.1006C3.21771 23.0645 1.83583 23.249 0.873335 22.5244C-0.0891654 21.7998 -0.281665 20.4258 0.447085 19.4619L4.49646 14.1504C6.03646 12.127 8.44958 10.9375 11.0002 10.9375C13.5508 10.9375 15.964 12.127 17.504 14.1504L21.5533 19.4619C22.289 20.4258 22.0965 21.7998 21.1271 22.5244C20.1577 23.249 18.7758 23.0645 18.0471 22.1006L16.0808 19.5166L18.219 25.9014C18.4596 26.6123 17.9233 27.3438 17.174 27.3438H15.9502V32.8125C15.9502 34.0225 14.9671 35 13.7502 35C12.5333 35 11.5502 34.0225 11.5502 32.8125V27.3438H10.4502V32.8125C10.4502 34.0225 9.46708 35 8.25021 35C7.03333 35 6.05021 34.0225 6.05021 32.8125ZM33.0002 0C34.1672 0 35.2863 0.460936 36.1115 1.28141C36.9366 2.10188 37.4002 3.21468 37.4002 4.375C37.4002 5.53532 36.9366 6.64812 36.1115 7.46859C35.2863 8.28906 34.1672 8.75 33.0002 8.75C31.8333 8.75 30.7141 8.28906 29.8889 7.46859C29.0638 6.64812 28.6002 5.53532 28.6002 4.375C28.6002 3.21468 29.0638 2.10188 29.8889 1.28141C30.7141 0.460936 31.8333 0 33.0002 0ZM32.4502 26.25V32.8125C32.4502 34.0225 31.4671 35 30.2502 35C29.0333 35 28.0502 34.0225 28.0502 32.8125V20.542L27.1633 21.9434C26.5171 22.9688 25.1558 23.2695 24.1315 22.627C23.1071 21.9844 22.7977 20.6309 23.444 19.6123L26.9983 14C28.2083 12.0928 30.319 10.9307 32.5808 10.9307H33.4265C35.6952 10.9307 37.8058 12.0859 39.009 14L42.5633 19.6191C43.2096 20.6445 42.9002 21.9912 41.8758 22.6338C40.8515 23.2764 39.4902 22.9688 38.844 21.9502L37.9502 20.542V32.8125C37.9502 34.0225 36.9671 35 35.7502 35C34.5333 35 33.5502 34.0225 33.5502 32.8125V26.25H32.4502Z" fill="#557B43"/>
<rect x="14.4897" y="46.1899" width="7.33079" height="7.33079" rx="0.5" stroke="#557B43"/>
<rect x="22.1797" y="46.1899" width="7.33079" height="7.33079" rx="0.5" stroke="#557B43"/>
<rect x="18.3347" y="38.5" width="7.33079" height="7.33079" rx="0.5" fill="white" stroke="#557B43"/>
<path d="M20.2979 42.8867L22.0002 40.5935L23.7025 42.8867H20.2979Z" stroke="#557B43" stroke-width="0.8"/>
<circle cx="18.1553" cy="49.8552" r="1.74291" stroke="#557B43"/>
<rect x="25.9159" y="48.157" width="2.40415" height="2.40415" transform="rotate(47.3821 25.9159 48.157)" stroke="#557B43" stroke-width="0.8"/>
</svg>
