<svg width="34" height="34" viewBox="0 0 34 34" fill="none" xmlns="http://www.w3.org/2000/svg">
<g id="Group 1000002734">
<g id="Vector" opacity="0.4">
<path d="M33.999 19.5298C33.9979 18.383 33.3783 17.7669 32.2256 17.7669C27.9939 17.7658 23.7621 17.7658 19.5303 17.7669C18.3832 17.7669 17.7658 18.3863 17.7647 19.5376C17.7625 23.7689 17.7625 28.0003 17.7647 32.2327C17.7647 33.3785 18.3898 33.9978 19.5381 33.9978C23.7699 33.9989 28.0016 33.9989 32.2334 33.9978C33.3761 33.9978 33.9979 33.3719 33.999 32.225C34.0012 30.1093 33.999 27.9936 33.999 25.878C33.999 23.7623 34.0001 21.6466 33.999 19.5309V19.5298ZM28.8418 30.1226C27.8609 30.1281 26.8811 30.1237 25.9001 30.1237C24.9059 30.1237 23.9117 30.1281 22.9164 30.1226C22.1971 30.1182 21.8479 29.6116 22.1339 28.958C23.1259 26.6986 24.1334 24.4446 25.1332 22.1885C25.2795 21.8589 25.5056 21.6422 25.8868 21.6444C26.2681 21.6466 26.4876 21.8689 26.6339 22.1985C27.6281 24.4424 28.629 26.6831 29.6176 28.9293C29.9191 29.6127 29.5822 30.1193 28.8407 30.1226H28.8418Z" fill="#F2819B"/>
<path d="M14.4606 17.7669C10.2289 17.7658 5.99712 17.7658 1.76536 17.7669C0.617086 17.7669 0.000831279 18.3852 0.000831279 19.5376C-0.000277093 23.7689 -0.000277093 28.0003 0.000831279 32.2327C0.000831279 33.3763 0.625953 33.9978 1.77312 33.9989C3.889 34.0011 6.00488 33.9989 8.12076 33.9989C10.2366 33.9989 12.3525 34 14.4684 33.9989C15.6122 33.9989 16.2351 33.3752 16.2351 32.2261C16.2374 27.9947 16.2374 23.7634 16.2351 19.5309C16.2351 18.3841 15.6122 17.768 14.4618 17.768L14.4606 17.7669ZM8.11189 30.5174C5.56486 30.5174 3.47114 28.415 3.48001 25.8669C3.48998 23.3332 5.56486 21.2551 8.09859 21.2429C10.6423 21.2308 12.7482 23.3265 12.7538 25.8746C12.7593 28.4194 10.6623 30.5163 8.11079 30.5163L8.11189 30.5174Z" fill="#F2819B"/>
</g>
<path id="Vector_2" d="M10.701 16.232C14.9051 16.232 19.1091 16.232 23.3132 16.232C24.5135 16.232 25.1198 15.6237 25.1198 14.4171C25.1198 10.2134 25.1198 6.00971 25.1198 1.8049C25.1198 0.608271 24.508 0 23.3043 0C19.1003 0 14.8962 0 10.6921 0C9.49178 0 8.88661 0.608271 8.8855 1.81486C8.88439 3.90289 8.8855 5.99091 8.8855 8.07894C8.8855 10.1946 8.8855 12.3103 8.8855 14.426C8.8855 15.6281 9.49289 16.2309 10.7021 16.2309L10.701 16.232ZM13.4077 6.37025C13.9164 6.19662 14.444 6.07718 14.9505 5.90023C15.1301 5.83719 15.3118 5.70447 15.4271 5.55406C15.7286 5.15924 15.9891 4.73456 16.2739 4.32757C16.6774 3.75137 17.3734 3.70492 17.6871 4.3143C18.2889 5.48328 19.1956 6.11699 20.4802 6.34592C21.184 6.47089 21.4035 7.15105 20.9124 7.66753C20.0147 8.6109 19.6422 9.65491 19.844 10.9599C19.9537 11.6655 19.364 12.0803 18.7179 11.7617C17.5596 11.1922 16.4657 11.1855 15.303 11.7529C14.6136 12.0891 14.1203 11.6766 14.1336 10.8958C14.1381 10.6469 14.1336 10.3981 14.1336 10.1139C14.342 9.41714 14.0638 8.83762 13.5695 8.31672C13.3611 8.09774 13.186 7.84559 13.012 7.59564C12.6684 7.10128 12.8335 6.56379 13.4054 6.36915L13.4077 6.37025Z" fill="#F2819B"/>
</g>
</svg>
