<svg width="26" height="26" viewBox="0 0 26 26" fill="none" xmlns="http://www.w3.org/2000/svg">
<g id="Group 1000002734">
<g id="Vector" opacity="0.4">
<path d="M25.7488 14.8975C25.7479 14.0373 25.2833 13.5753 24.4187 13.5753C21.2449 13.5745 18.0711 13.5745 14.8973 13.5753C14.0369 13.5753 13.5739 14.0398 13.573 14.9033C13.5714 18.0768 13.5714 21.2503 13.573 24.4247C13.573 25.284 14.0419 25.7485 14.9031 25.7485C18.0769 25.7493 21.2507 25.7493 24.4245 25.7485C25.2816 25.7485 25.7479 25.279 25.7488 24.4189C25.7504 22.8321 25.7488 21.2453 25.7488 19.6586C25.7488 18.0718 25.7496 16.4851 25.7488 14.8983V14.8975ZM21.8808 22.8421C21.1452 22.8462 20.4103 22.8429 19.6746 22.8429C18.929 22.8429 18.1833 22.8462 17.4368 22.8421C16.8973 22.8387 16.6355 22.4588 16.8499 21.9686C17.5939 20.274 18.3496 18.5836 19.0994 16.8915C19.2091 16.6443 19.3787 16.4818 19.6646 16.4834C19.9506 16.4851 20.1152 16.6518 20.2249 16.899C20.9706 18.582 21.7212 20.2624 22.4627 21.9471C22.6888 22.4597 22.4361 22.8396 21.88 22.8421H21.8808Z" fill="#577D44"/>
<path d="M11.095 13.5753C7.92117 13.5745 4.74735 13.5745 1.57353 13.5753C0.712326 13.5753 0.250135 14.039 0.250135 14.9033C0.249304 18.0768 0.249304 21.2503 0.250135 24.4247C0.250135 25.2823 0.718976 25.7485 1.57935 25.7493C3.16626 25.751 4.75317 25.7493 6.34008 25.7493C7.92699 25.7493 9.5139 25.7501 11.1008 25.7493C11.9587 25.7493 12.4259 25.2815 12.4259 24.4197C12.4275 21.2462 12.4275 18.0727 12.4259 14.8983C12.4259 14.0382 11.9587 13.5762 11.0958 13.5762L11.095 13.5753ZM6.33343 23.1382C4.42315 23.1382 2.85287 21.5614 2.85952 19.6503C2.867 17.75 4.42315 16.1914 6.32346 16.1823C8.23124 16.1732 9.81067 17.745 9.81483 19.6561C9.81898 21.5647 8.2462 23.1373 6.3326 23.1373L6.33343 23.1382Z" fill="#577D44"/>
</g>
<path id="Vector_2" d="M8.27558 12.424C11.4286 12.424 14.5817 12.424 17.7347 12.424C18.635 12.424 19.0897 11.9678 19.0897 11.0628C19.0897 7.91006 19.0897 4.75729 19.0897 1.60368C19.0897 0.706203 18.6308 0.25 17.728 0.25C14.575 0.25 11.422 0.25 8.26893 0.25C7.36865 0.25 6.91477 0.706203 6.91394 1.61114C6.91311 3.17716 6.91394 4.74319 6.91394 6.30921C6.91394 7.89596 6.91394 9.48272 6.91394 11.0695C6.91394 11.9711 7.36948 12.4232 8.27641 12.4232L8.27558 12.424ZM10.3056 5.02769C10.6871 4.89746 11.0828 4.80788 11.4627 4.67517C11.5974 4.62789 11.7337 4.52835 11.8202 4.41555C12.0463 4.11943 12.2416 3.80092 12.4552 3.49568C12.7578 3.06353 13.2799 3.02869 13.5151 3.48572C13.9665 4.36246 14.6465 4.83774 15.6099 5.00944C16.1378 5.10317 16.3024 5.61329 15.9341 6.00065C15.2608 6.70818 14.9815 7.49119 15.1328 8.46995C15.2151 8.99914 14.7729 9.31019 14.2882 9.07131C13.4195 8.64414 12.5991 8.63916 11.727 9.06467C11.21 9.31683 10.8401 9.00744 10.85 8.42184C10.8534 8.23521 10.85 8.04858 10.85 7.83541C11.0063 7.31285 10.7977 6.87821 10.4269 6.48754C10.2706 6.32331 10.1393 6.13419 10.0088 5.94673C9.7511 5.57596 9.87496 5.17285 10.3039 5.02686L10.3056 5.02769Z" fill="#577D44"/>
</g>
</svg>
