<svg width="35" height="34" viewBox="0 0 35 34" fill="none" xmlns="http://www.w3.org/2000/svg">
<g id="Layer_1" clip-path="url(#clip0_128_152)">
<path id="Vector" opacity="0.4" d="M18.3155 30.9977C17.7513 31.0118 17.3386 30.5571 17.4796 30.0476C17.8352 28.7597 18.2211 27.4801 18.6082 26.2004C18.6886 25.9327 18.8891 25.7282 19.0862 25.5307C21.8527 22.7551 24.6216 19.9807 27.3789 17.197C27.5981 16.9749 27.7123 16.9901 27.921 17.2016C29.0134 18.3142 30.1151 19.4163 31.2274 20.509C31.4314 20.71 31.4768 20.8315 31.2507 21.0571C28.5039 23.7906 25.7677 26.5358 23.0268 29.274C22.6922 29.6082 22.2888 29.8302 21.8399 29.9845C20.7545 30.3596 19.6458 30.653 18.5371 30.9451C18.4531 30.9674 18.368 30.9849 18.3167 30.9966L18.3155 30.9977Z" fill="#1CB7A3"/>
<path id="Vector_2" opacity="0.4" d="M34.8706 16.4891C34.8729 17.0629 34.7109 17.5409 34.3413 17.923C33.7549 18.5296 33.144 19.1139 32.5517 19.7158C32.406 19.8642 32.3185 19.856 32.1728 19.7087C31.0408 18.5553 29.9041 17.4065 28.7592 16.2659C28.6053 16.1128 28.6146 16.0263 28.7569 15.8802C29.3445 15.2737 29.8971 14.6344 30.5325 14.0746C31.2565 13.4377 32.2299 13.3419 33.0332 13.8736C33.6313 14.2698 34.1245 14.7922 34.5418 15.3742C34.7843 15.7119 34.8764 16.1128 34.8694 16.4891H34.8706Z" fill="#1CB7A3"/>
<g id="Group">
<path id="Vector_3" d="M26.1395 28.219C26.1466 28.213 26.1525 28.2071 26.1596 28.2C26.1572 28.187 26.149 28.1976 26.1395 28.219Z" fill="#1CB7A3"/>
<path id="Vector_4" d="M26.1396 28.2186C25.4517 28.8485 24.7499 29.4644 24.0807 30.1142C23.5362 30.6424 22.923 31.0445 22.2036 31.2653C21.1077 31.6019 20.0084 31.9291 18.902 32.2295C17.131 32.7098 15.7343 31.3121 16.2135 29.538C16.512 28.4302 16.8675 27.3374 17.159 26.2284C17.3479 25.5132 17.7186 24.9347 18.2363 24.4193C20.786 21.8798 23.3264 19.3309 25.8714 16.7879C26.0276 16.6313 26.1524 16.4887 26.1524 16.234C26.1337 11.2356 26.1279 6.23718 26.1128 1.2388C26.1104 0.620574 25.7129 0.161288 25.1043 0.050265C24.9061 0.0140364 24.6986 0.00819305 24.4957 0.00819305C18.67 0.00585572 12.8442 0.011699 7.01843 1.23872e-05C6.04144 -0.00232494 5.244 0.32607 4.55965 1.01909C3.22708 2.36539 1.88402 3.70118 0.521136 5.01476C0.138736 5.38289 0 5.78725 0 6.29445C0.00466341 15.0957 0.00349756 23.8981 0.00466341 32.6993C0.00466341 33.5664 0.42437 33.9977 1.28127 33.9988C9.11696 34.0012 16.9538 34.0012 24.7895 33.9988C25.6371 33.9988 26.1104 33.5255 26.1139 32.6712C26.1209 31.2291 26.1163 29.7858 26.1139 28.3437C26.1139 28.2981 26.1279 28.2478 26.1407 28.2186H26.1396ZM10.3225 5.72881C11.2551 5.72531 12.1867 5.72881 13.1193 5.72881C14.052 5.72881 14.9835 5.72531 15.9162 5.72998C16.6169 5.73349 16.8396 5.98125 16.8442 6.76659C16.8501 7.68282 16.8524 8.60023 16.8419 9.51646C16.8349 10.1768 16.6017 10.4876 16.0246 10.4946C14.1021 10.5157 12.1797 10.5168 10.256 10.4946C9.61944 10.4876 9.39793 10.1931 9.38044 9.47205C9.35829 8.60607 9.34663 7.73892 9.34314 6.87294C9.33964 5.99176 9.56348 5.73466 10.3225 5.73115V5.72881ZM5.35592 14.7591C4.9677 14.6633 4.74035 14.3606 4.74152 13.8101C4.74152 13.2655 4.96303 12.9547 5.35009 12.8495C5.53313 12.7992 5.72667 12.8027 5.91553 12.8027C10.6885 12.8004 15.4627 12.8004 20.2357 12.8027C20.4386 12.8027 20.6472 12.8004 20.8443 12.8577C21.2325 12.9699 21.447 13.3041 21.4412 13.837C21.4354 14.3781 21.201 14.6831 20.8081 14.7661C20.6088 14.8082 20.4024 14.8012 20.1984 14.8012C17.8259 14.8035 15.4545 14.8023 13.082 14.8023C10.7095 14.8023 8.33817 14.8023 5.96566 14.8012C5.76281 14.8012 5.55412 14.8105 5.35709 14.7614L5.35592 14.7591ZM8.01407 19.4174C7.79722 19.4174 7.58037 19.4303 7.36585 19.3426C6.98695 19.1872 6.84472 18.8448 6.85638 18.3446C6.86803 17.842 7.08372 17.5709 7.42881 17.4716C7.62467 17.4155 7.83336 17.4178 8.03622 17.4178C11.3962 17.4155 14.7562 17.4155 18.115 17.4178C18.3179 17.4178 18.5266 17.4155 18.7224 17.4716C19.0675 17.5709 19.2832 17.842 19.2948 18.3446C19.3065 18.8448 19.1631 19.1872 18.7842 19.3426C18.5697 19.4303 18.3528 19.4174 18.136 19.4174C16.4338 19.4209 14.7329 19.4186 13.0307 19.4186C11.3286 19.4186 9.6859 19.4197 8.0129 19.4174H8.01407Z" fill="#1CB7A3"/>
</g>
</g>
<defs>
<clipPath id="clip0_128_152">
<rect width="34.8718" height="34" fill="white"/>
</clipPath>
</defs>
</svg>
