<svg width="32" height="41" viewBox="0 0 32 41" fill="none" xmlns="http://www.w3.org/2000/svg">
<g id="Group 1000007448">
<path id="Vector" d="M9.16626 0.0017426C8.80095 0.0712227 8.47195 0.267572 8.23737 0.556107C8.00279 0.844642 7.87773 1.2068 7.88428 1.5786V3.15545H2.21706C0.955575 3.15545 0 4.11103 0 5.37251V38.6347C0 40.0539 0.955575 41 2.21706 41H29.1718C30.4333 41 31.3889 40.0444 31.3889 38.7829V5.37251C31.5466 4.11103 30.5815 3.15545 29.3201 3.15545H23.6528V1.5786C23.6528 1.16039 23.4867 0.759311 23.191 0.463593C22.8953 0.167875 22.4942 0.0017426 22.076 0.0017426H9.46114C9.41176 -0.000580867 9.36229 -0.000580867 9.31291 0.0017426C9.26353 -0.000580867 9.21564 -0.000580867 9.16626 0.0017426ZM11.038 3.15545H20.4991V6.30917H11.038V3.15545ZM3.15371 6.30917H7.88428V7.88602C7.88428 8.30423 8.05041 8.70531 8.34613 9.00103C8.64185 9.29675 9.04293 9.46288 9.46114 9.46288H22.076C22.4942 9.46288 22.8953 9.29675 23.191 9.00103C23.4867 8.70531 23.6528 8.30423 23.6528 7.88602V6.30917H28.3834V37.8463H3.15371V6.30917ZM6.30742 14.1934V20.5009H12.6148V14.1934H6.30742ZM7.88428 15.7703H11.038V18.924H7.88428V15.7703ZM15.7686 15.7703V18.924H25.2297V15.7703H15.7686ZM6.30742 23.6546V29.962H12.6148V23.6546H6.30742ZM15.7686 25.2314V28.3852H25.2297V25.2314H15.7686Z" fill="#557B43"/>
</g>
</svg>
