<svg width="25" height="25" viewBox="0 0 25 25" fill="none" xmlns="http://www.w3.org/2000/svg">
<path d="M24.9993 14.3602C24.9985 13.5169 24.5429 13.064 23.6953 13.064C20.5837 13.0632 17.4721 13.0632 14.3605 13.064C13.517 13.064 13.0631 13.5194 13.0623 14.3659C13.0606 17.4772 13.0606 20.5885 13.0623 23.7006C13.0623 24.5431 13.5219 24.9985 14.3662 24.9985C17.4778 24.9993 20.5894 24.9993 23.701 24.9985C24.5413 24.9985 24.9985 24.5382 24.9993 23.6949C25.0009 22.1393 24.9993 20.5836 24.9993 19.028C24.9993 17.4723 25.0001 15.9167 24.9993 14.361V14.3602ZM21.2072 22.149C20.4859 22.1531 19.7655 22.1498 19.0442 22.1498C18.3132 22.1498 17.5822 22.1531 16.8503 22.149C16.3214 22.1458 16.0647 21.7733 16.2749 21.2927C17.0043 19.6314 17.7451 17.9741 18.4803 16.3152C18.5878 16.0728 18.7541 15.9134 19.0344 15.9151C19.3148 15.9167 19.4762 16.0801 19.5837 16.3225C20.3148 17.9724 21.0507 19.62 21.7777 21.2716C21.9993 21.7741 21.7516 22.1466 21.2064 22.149H21.2072Z" fill="#eb6f45"/>
<path d="M7.86842 11.9353C10.9596 11.9353 14.0508 11.9353 17.1421 11.9353C18.0247 11.9353 18.4705 11.488 18.4705 10.6008C18.4705 7.50987 18.4705 4.41891 18.4705 1.32714C18.4705 0.447258 18.0206 0 17.1355 0C14.0443 0 10.9531 0 7.8619 0C6.97928 0 6.5343 0.447258 6.53348 1.33445C6.53267 2.86977 6.53348 4.40508 6.53348 5.9404C6.53348 7.49604 6.53348 9.05169 6.53348 10.6073C6.53348 11.4913 6.98009 11.9345 7.86923 11.9345L7.86842 11.9353ZM9.8586 4.68401C10.2327 4.55634 10.6206 4.46851 10.993 4.3384C11.1251 4.29205 11.2587 4.19447 11.3435 4.08387C11.5652 3.79356 11.7567 3.48129 11.9661 3.18204C12.2628 2.75836 12.7746 2.72421 13.0052 3.17228C13.4478 4.03183 14.1144 4.49779 15.059 4.66612C15.5765 4.75801 15.7379 5.25813 15.3768 5.63789C14.7167 6.33155 14.4429 7.0992 14.5912 8.05877C14.6719 8.57759 14.2383 8.88254 13.7632 8.64834C12.9115 8.22954 12.1071 8.22467 11.2522 8.64184C10.7453 8.88905 10.3826 8.58572 10.3924 8.01161C10.3957 7.82864 10.3924 7.64567 10.3924 7.43668C10.5456 6.92437 10.3411 6.49825 9.97758 6.11523C9.82437 5.95422 9.6956 5.76881 9.56765 5.58503C9.31501 5.22153 9.43644 4.82632 9.85697 4.6832L9.8586 4.68401Z" fill="#557b43"/>
<path d="M10.6328 13.064C7.52124 13.0632 4.40965 13.0632 1.29806 13.064C0.45374 13.064 0.000611234 13.5186 0.000611234 14.3659C-0.000203745 17.4772 -0.000203745 20.5885 0.000611234 23.7006C0.000611234 24.5414 0.460259 24.9985 1.30376 24.9993C2.85956 25.0009 4.41535 24.9993 5.97115 24.9993C7.52694 24.9993 9.08274 25.0001 10.6385 24.9993C11.4796 24.9993 11.9376 24.5406 11.9376 23.6957C11.9392 20.5844 11.9392 17.4731 11.9376 14.361C11.9376 13.5178 11.4796 13.0648 10.6336 13.0648L10.6328 13.064ZM5.96463 22.4393C4.09181 22.4393 2.55231 20.8934 2.55883 19.0198C2.56616 17.1568 4.09181 15.6288 5.95485 15.6199C7.82522 15.6109 9.37368 17.1519 9.37776 19.0255C9.38183 20.8967 7.83989 22.4385 5.96381 22.4385L5.96463 22.4393Z" fill="#eb6f45"/>
</svg>
