<svg width="39" height="40" viewBox="0 0 39 40" fill="none" xmlns="http://www.w3.org/2000/svg">
<path d="M0.0140087 14.2995H38.0082C38.0165 14.4744 38.0296 14.6326 38.0296 14.7909C38.0296 21.8245 37.9975 28.8582 38.0487 35.8907C38.0665 38.2594 36.287 40.0095 33.9433 40C23.9639 39.9595 13.9833 39.9833 4.00387 39.9821C1.99585 39.9821 0.46513 38.7805 0.0842361 36.9031C0.0259117 36.6152 0.0175796 36.3118 0.0175796 36.0156C0.0140087 28.9082 0.015199 21.7996 0.015199 14.6921C0.015199 14.5744 0.015199 14.4578 0.015199 14.2983L0.0140087 14.2995ZM5.72504 32.3262C5.72504 32.3262 5.72147 32.3262 5.71909 32.3262C5.71909 32.6379 5.71432 32.9508 5.71909 33.2625C5.73932 34.394 6.47611 35.1768 7.59618 35.2244C8.24846 35.2518 8.90312 35.2541 9.55421 35.222C10.6148 35.1697 11.3575 34.4297 11.4111 33.3684C11.4444 32.701 11.4456 32.03 11.4111 31.3626C11.3539 30.2787 10.5838 29.5447 9.5066 29.5232C8.83885 29.5102 8.1699 29.5042 7.50334 29.5292C6.52968 29.5661 5.77503 30.3275 5.72623 31.3007C5.70956 31.6421 5.72385 31.9836 5.72385 32.3262H5.72504ZM19.0254 29.5268V29.5244C18.6838 29.5244 18.3421 29.5125 18.0017 29.5268C16.9697 29.5685 16.1961 30.3572 16.1734 31.3959C16.1603 32.0193 16.1651 32.6439 16.1722 33.2685C16.1841 34.3619 16.9269 35.1637 18.0184 35.2208C18.685 35.2553 19.3551 35.2542 20.0217 35.2208C21.0632 35.1697 21.8333 34.4094 21.8678 33.4077C21.8928 32.7105 21.894 32.0098 21.8678 31.3126C21.8309 30.3442 21.0584 29.578 20.0955 29.5292C19.7407 29.5113 19.3837 29.5268 19.0266 29.5268H19.0254ZM29.4678 24.7429C29.794 24.7429 30.1213 24.7513 30.4474 24.7417C31.5223 24.7084 32.2912 23.9494 32.321 22.8774C32.3388 22.2386 32.3364 21.5997 32.3233 20.9608C32.3019 19.8781 31.5746 19.1024 30.4951 19.0453C29.8142 19.0096 29.1286 19.0085 28.4477 19.0477C27.4122 19.1072 26.6825 19.852 26.6325 20.893C26.6004 21.5604 26.6004 22.2314 26.6325 22.8989C26.6861 23.9815 27.4574 24.7132 28.5334 24.7441C28.8453 24.7524 29.1572 24.7453 29.469 24.7441L29.4678 24.7429ZM19.017 24.7382C19.017 24.7382 19.017 24.7406 19.017 24.7429C19.3432 24.7429 19.6705 24.7524 19.9967 24.7417C21.081 24.706 21.8547 23.9184 21.8726 22.8275C21.8821 22.2183 21.8809 21.6092 21.8726 20.9989C21.8595 19.9019 21.1191 19.1013 20.0288 19.0453C19.3622 19.0108 18.6921 19.0132 18.0255 19.0453C16.9876 19.0941 16.2115 19.8579 16.177 20.8561C16.1532 21.5533 16.152 22.254 16.177 22.9512C16.2127 23.9173 16.9852 24.687 17.947 24.737C18.3017 24.756 18.6588 24.7405 19.0159 24.7405L19.017 24.7382ZM5.72147 21.8864C5.72147 22.2136 5.71313 22.5407 5.72266 22.8667C5.75599 23.9411 6.51539 24.7096 7.58666 24.7394C8.20918 24.756 8.83289 24.7524 9.45661 24.7429C10.604 24.7251 11.3813 23.9672 11.4182 22.8191C11.4384 22.1957 11.4408 21.5699 11.4182 20.9465C11.3766 19.8448 10.6171 19.0822 9.51969 19.0394C8.88289 19.0156 8.24251 19.0144 7.6057 19.0394C6.48683 19.0822 5.74289 19.8662 5.72147 20.9941C5.71552 21.2915 5.72147 21.589 5.72147 21.8852V21.8864ZM29.5166 29.5256C29.5166 29.5256 29.5166 29.5221 29.5166 29.5209C29.2048 29.5209 28.8929 29.5161 28.5811 29.5209C27.4336 29.5435 26.6587 30.3013 26.6254 31.4506C26.6075 32.0597 26.6087 32.6701 26.6254 33.278C26.6564 34.4011 27.4158 35.1816 28.5323 35.2244C29.1691 35.2494 29.8094 35.2506 30.4462 35.2244C31.5508 35.178 32.3007 34.4059 32.3221 33.3078C32.3352 32.6391 32.3412 31.9693 32.315 31.3019C32.2769 30.3275 31.5151 29.5756 30.5415 29.528C30.201 29.5113 29.8594 29.5256 29.5178 29.5256H29.5166Z" fill="#eb6f45"/>
<path d="M25.697 2.88412C25.5744 4.36175 25.8374 5.69781 27.0111 6.69599C27.7276 7.30513 28.5596 7.61803 29.5059 7.60494C30.7272 7.58829 31.7115 7.08979 32.4757 6.14277C33.2434 5.19099 33.3446 4.06313 33.2791 2.91029C35.9394 2.47485 38.0165 4.21185 38.0284 6.8459C38.0356 8.54126 38.0308 10.2354 38.0284 11.9308C38.0284 12.0628 38.0165 12.1937 38.0094 12.3531H0.0140087C0.0140087 12.0319 0.0140087 11.7369 0.0140087 11.443C0.0140087 9.94156 0.0616205 8.43775 0.0032961 6.9387C-0.0895468 4.54735 1.79112 2.72588 4.10862 2.85437C4.30026 2.86508 4.49427 2.85556 4.7609 2.85556C4.7609 3.1875 4.75614 3.50634 4.7609 3.82519C4.79304 5.77515 6.27376 7.42649 8.13181 7.58591C10.1779 7.76318 11.9205 6.48779 12.2895 4.50214C12.3859 3.98342 12.3574 3.4421 12.3883 2.88293H25.6958L25.697 2.88412Z" fill="#557b43"/>
<path d="M10.4612 2.87103C10.4612 3.21248 10.4743 3.55512 10.4588 3.89538C10.4136 4.86263 9.6542 5.63952 8.70196 5.70614C7.71997 5.77515 6.81178 5.11247 6.71417 4.12619C6.62966 3.27554 6.63085 2.40228 6.72012 1.55162C6.82249 0.590326 7.72116 -0.0556947 8.69006 0.00379154C9.6411 0.0620881 10.41 0.836599 10.4588 1.80266C10.4767 2.15838 10.4612 2.5153 10.4624 2.87222L10.4612 2.87103Z" fill="#eb6f45"/>
<path d="M31.4116 2.90791C31.3878 3.31837 31.4009 3.7538 31.3294 4.17497C31.1688 5.12794 30.3022 5.77515 29.3357 5.70614C28.4025 5.63952 27.6288 4.8769 27.5883 3.93583C27.5586 3.22438 27.561 2.50935 27.5872 1.7979C27.6217 0.836599 28.4073 0.0597086 29.3571 0.00379154C30.3284 -0.0533153 31.1795 0.596275 31.333 1.55638C31.4032 1.99301 31.3866 2.44273 31.4116 2.90791Z" fill="#eb6f45"/>
</svg>
