<svg width="40" height="39" viewBox="0 0 40 39" fill="none" xmlns="http://www.w3.org/2000/svg">
<path d="M39.9132 25.641C39.0331 21.5899 38.1589 17.5328 37.2731 13.4817C36.8389 11.507 35.4263 10.2983 33.4694 10.2684C31.1536 10.2384 28.8377 10.2384 26.5219 10.2684C24.6519 10.2923 23.2161 11.4771 22.7645 13.2962C22.6371 13.8049 22.5503 14.3195 22.4229 14.8221C22.365 15.0495 22.4345 15.1871 22.5908 15.3427C24.3566 17.1319 24.0556 20.0341 21.9656 21.4104C21.8845 21.4642 21.8092 21.5241 21.7282 21.5779C22.614 21.6617 23.4824 21.7395 24.3798 21.8233C24.5593 21.0932 24.7503 20.3034 24.9414 19.5135C25.0109 20.3333 24.9993 21.1351 25.0224 21.937C25.0224 22.0985 25.1382 22.314 25.2656 22.4097C26.0472 22.9901 26.6493 23.7202 26.9504 24.6656C27.5872 26.6642 28.2298 28.6569 28.8204 30.6735C29.3125 32.3489 28.2356 34.0663 26.5567 34.3177C26.0588 34.3895 25.5377 34.2937 25.034 34.2698V35.6221H29.353C29.353 35.311 29.353 35.0297 29.353 34.7485C29.3646 34.2937 29.6251 34.0005 30.0014 34.0005C30.3778 34.0005 30.6267 34.2937 30.6441 34.7545C30.6441 34.928 30.6615 35.1075 30.6441 35.2751C30.6093 35.5862 30.7425 35.658 31.0262 35.6521C32.1204 35.6401 33.2089 35.6521 34.3031 35.6521H35.0036V19.4836C35.3047 20.4949 35.542 21.5061 35.7852 22.5234C36.1036 23.8638 36.4105 25.2042 36.7347 26.5446C36.92 27.3225 37.4989 27.8371 38.2052 27.885C38.9752 27.9388 39.5889 27.5379 39.8958 26.7899C39.9247 26.7181 39.9653 26.6523 40 26.5865V25.8624C39.9711 25.7906 39.9363 25.7188 39.9189 25.641H39.9132Z" fill="#557b43"/>
<path d="M14.7228 34.2458C13.6402 34.569 12.6733 34.3236 11.8859 33.5098C11.0812 32.6781 10.867 31.6548 11.2028 30.5418C11.7759 28.6509 12.3781 26.766 12.9628 24.881C13.2754 23.8758 13.8428 23.0619 14.6939 22.4695C14.9139 22.314 15.0065 22.1584 15.0007 21.8831C14.9834 21.0992 14.9949 20.3093 14.9949 19.5255C15.0181 19.5255 15.0413 19.5195 15.0644 19.5135C15.2555 20.3094 15.4523 21.1112 15.6202 21.8233C16.5292 21.7395 17.3918 21.6617 18.2892 21.5779C18.1502 21.4882 18.0402 21.4224 17.9302 21.3505C16.176 20.1598 15.6318 17.6345 16.9402 15.9591C17.5481 15.1811 17.6002 14.5289 17.3223 13.6971C17.2992 13.6313 17.2876 13.5655 17.2702 13.5057C16.8244 11.525 15.4349 10.2983 13.4781 10.2744C11.1507 10.2384 8.81748 10.2384 6.49009 10.2744C4.55059 10.3043 3.14951 11.525 2.72109 13.4757C2.06687 16.4557 1.43002 19.4417 0.7758 22.4217C0.526849 23.5706 0.26053 24.7135 0 25.8564V26.5805C0 26.5805 0.0463164 26.6104 0.052106 26.6343C0.416848 27.5439 0.961065 27.9388 1.78897 27.879C2.55319 27.8251 3.06846 27.3105 3.28846 26.377C3.62426 24.9588 3.96005 23.5407 4.29585 22.1225C4.50427 21.2369 4.71848 20.3512 4.9327 19.4596C4.95585 19.4596 4.9848 19.4656 5.00796 19.4716V35.5862C5.06586 35.6162 5.08901 35.6341 5.11217 35.6341C6.43798 35.6341 7.76379 35.6401 9.08959 35.6521C9.31538 35.6521 9.34433 35.5324 9.33854 35.3469C9.33854 34.8622 9.32696 34.3775 9.34433 33.8988C9.3617 33.4679 9.68592 33.2047 10.0796 33.2645C10.4212 33.3124 10.618 33.5816 10.6238 34.0244C10.6296 34.557 10.6238 35.0836 10.6238 35.6162H14.9428V34.198C14.9081 34.192 14.8907 34.186 14.8791 34.186C14.8155 34.204 14.7518 34.2219 14.6939 34.2399L14.7228 34.2458Z" fill="#557b43"/>
<path d="M26.603 32.9473C27.4019 32.6661 27.8246 31.8104 27.5525 30.9308C26.9677 29.0279 26.383 27.125 25.7751 25.2341C25.3409 23.8817 24.2293 23.0141 22.8398 22.9901C20.9524 22.9542 19.065 22.9482 17.1834 22.9901C15.8113 23.026 14.7691 23.7262 14.306 25.0665C13.6228 27.0472 13.0323 29.0578 12.4244 31.0684C12.1986 31.8164 12.6096 32.6122 13.3102 32.9114C14.0223 33.2166 14.856 32.9114 15.2265 32.2173C15.3307 32.0198 15.4002 31.7984 15.4813 31.589C15.7476 30.8709 16.0139 30.1529 16.2802 29.4348C16.3092 29.4348 16.3323 29.4468 16.3613 29.4527V38.8235H19.3603V38.3747C19.3603 37.2318 19.3603 36.0949 19.3603 34.952C19.3603 34.8323 19.3603 34.7126 19.366 34.5869C19.4008 34.192 19.6671 33.9227 20.0203 33.9287C20.3676 33.9347 20.6455 34.2159 20.6455 34.6109C20.6571 35.8735 20.6455 37.1361 20.6455 38.3927C20.6455 38.5303 20.6455 38.6739 20.6455 38.8116H23.6561V29.4946C23.685 29.4946 23.714 29.4827 23.7429 29.4767C24.0498 30.3084 24.3508 31.1462 24.6751 31.9779C24.9993 32.8277 25.8098 33.2226 26.603 32.9473Z" fill="#eb6f45"/>
<path d="M29.9957 6.86951C31.8309 6.86951 33.3246 5.34961 33.342 3.45869C33.3594 1.55581 31.8599 0 30.0072 0C28.1604 0 26.6493 1.55581 26.6609 3.44673C26.6725 5.33764 28.1662 6.86353 29.9957 6.86353V6.86951Z" fill="#557b43"/>
<path d="M10.0043 6.86951C11.857 6.86951 13.3623 5.31969 13.3507 3.42279C13.3391 1.53188 11.857 0 10.0217 0C8.17484 0 6.66377 1.54983 6.67535 3.44673C6.68114 5.33165 8.17484 6.86951 10.0101 6.86951H10.0043Z" fill="#557b43"/>
<path d="M20.0087 20.6385C21.375 20.6385 22.4461 19.5135 22.4345 18.0953C22.4229 16.707 21.3461 15.612 19.9913 15.612C18.6424 15.612 17.5713 16.719 17.5655 18.1133C17.5655 19.5255 18.6424 20.6385 20.0087 20.6385Z" fill="#eb6f45"/>
</svg>
