<svg width="44" height="38" viewBox="0 0 44 38" fill="none" xmlns="http://www.w3.org/2000/svg">
<path d="M44 37.0409C43.4271 38.1182 42.6958 38.2819 41.6729 37.5626C39.4708 36.0144 37.2631 34.473 35.0691 32.9136C34.3194 32.3806 33.5043 32.1333 32.5835 32.1355C27.5573 32.1445 22.531 32.14 17.5047 32.1389C14.421 32.1389 12.2913 30.0453 12.2867 27.0145C12.2867 26.3098 12.2867 25.6063 12.2867 24.8384C12.4738 24.8384 12.638 24.8384 12.8033 24.8384C17.414 24.8384 22.0258 24.8463 26.6365 24.8362C30.106 24.8283 33.0439 22.6873 33.975 19.4599C34.1725 18.7767 34.2632 18.045 34.2747 17.3347C34.3114 15.0063 34.2884 12.6778 34.2884 10.3493C34.2884 10.198 34.2884 10.0467 34.2884 9.85359C35.0565 9.85359 35.7832 9.84568 36.5088 9.85585C37.596 9.87053 38.6947 9.80164 39.7659 9.94054C41.9392 10.2206 43.5224 11.8072 43.9196 13.938C43.9346 14.0193 43.9713 14.0972 43.9977 14.1763V37.0431L44 37.0409Z" fill="#eb6f45"/>
<path d="M17.4726 0.00220552C21.6676 0.00220552 25.8638 0.00220552 30.0589 0.00220552C31.277 0.00220552 31.7121 0.431312 31.7121 1.62829C31.7121 6.86339 31.7156 12.0985 31.7099 17.3336C31.7076 19.6959 30.1462 21.6326 27.811 22.1622C27.3701 22.2615 26.904 22.292 26.4494 22.292C21.438 22.3011 16.4267 22.3056 11.4142 22.2898C10.4716 22.2864 9.65417 22.545 8.89414 23.0848C6.65425 24.677 4.40287 26.2545 2.15035 27.8309C1.29962 28.426 0.260613 28.0974 0.0390346 27.168C-0.00574038 26.9795 0.00114808 26.7762 0.00114808 26.5797C0 19.4396 0 12.2995 0 5.15939C0 2.09354 2.11016 0.00898089 5.23063 0.00333475C9.31089 -0.00344062 13.3923 0.00220552 17.4726 0.00220552ZM16.7206 9.45271C17.8227 9.45271 18.9237 9.45271 20.0259 9.45271C21.399 9.45271 22.7732 9.46288 24.1463 9.44707C24.9603 9.43803 25.524 8.80341 25.4379 8.03553C25.361 7.35122 24.795 6.91308 23.9661 6.91195C20.0167 6.90969 16.0673 6.91195 12.1179 6.91195C11.2018 6.91195 10.2868 6.90969 9.37059 6.91308C8.8287 6.91534 8.39473 7.12199 8.13412 7.60643C7.66685 8.47367 8.2914 9.44368 9.3373 9.44933C11.7988 9.46062 14.2591 9.45271 16.7206 9.45384V9.45271ZM16.6907 15.3812C18.6505 15.3812 20.6114 15.3812 22.5712 15.3812C23.1291 15.3812 23.6882 15.3958 24.2451 15.371C24.8822 15.3439 25.3817 14.8561 25.4391 14.2474C25.4988 13.6071 25.0981 13.0437 24.4609 12.8957C24.2829 12.8539 24.0935 12.8427 23.9087 12.8427C19.1155 12.8404 14.3222 12.8393 9.52788 12.8427C9.32926 12.8427 9.09046 12.8167 8.94121 12.9115C8.63123 13.1092 8.265 13.3271 8.10656 13.6297C7.67144 14.4642 8.33618 15.3733 9.34878 15.3766C11.7953 15.3857 14.2419 15.38 16.6896 15.38L16.6907 15.3812Z" fill="#557b43"/>
</svg>
