<svg width="40" height="40" viewBox="0 0 40 40" fill="none" xmlns="http://www.w3.org/2000/svg">
<path d="M39.9988 22.9764C39.9975 21.6271 39.2686 20.9024 37.9125 20.9024C32.9339 20.9011 27.9554 20.9011 22.9769 20.9024C21.6273 20.9024 20.9009 21.631 20.8996 22.9855C20.897 27.9635 20.897 32.9416 20.8996 37.921C20.8996 39.2689 21.6351 39.9975 22.986 39.9975C27.9645 39.9988 32.9431 39.9988 37.9216 39.9975C39.266 39.9975 39.9975 39.2611 39.9988 37.9119C40.0014 35.4228 39.9988 32.9338 39.9988 30.4448C39.9988 27.9557 40.0001 25.4667 39.9988 22.9777V22.9764ZM33.9315 35.4384C32.7775 35.4449 31.6248 35.4397 30.4708 35.4397C29.3011 35.4397 28.1314 35.4449 26.9605 35.4384C26.1142 35.4332 25.7035 34.8373 26.0399 34.0684C27.2069 31.4102 28.3922 28.7585 29.5684 26.1042C29.7405 25.7165 30.0065 25.4615 30.4551 25.4641C30.9037 25.4667 31.1619 25.7282 31.334 26.116C32.5036 28.7559 33.6811 31.392 34.8443 34.0345C35.1989 34.8386 34.8025 35.4345 33.9302 35.4384H33.9315Z" fill="#557b43"/>
<path d="M12.5895 19.0964C17.5354 19.0964 22.4814 19.0964 27.4273 19.0964C28.8395 19.0964 29.5528 18.3808 29.5528 16.9613C29.5528 12.0158 29.5528 7.07025 29.5528 2.12342C29.5528 0.715613 28.833 0 27.4169 0C22.4709 0 17.525 0 12.579 0C11.1668 0 10.4549 0.715613 10.4536 2.13513C10.4523 4.59163 10.4536 7.04813 10.4536 9.50464C10.4536 11.9937 10.4536 14.4827 10.4536 16.9717C10.4536 18.386 11.1681 19.0951 12.5908 19.0951L12.5895 19.0964ZM15.7738 7.49442C16.3723 7.29014 16.993 7.14962 17.5889 6.94144C17.8001 6.86728 18.014 6.71115 18.1496 6.53419C18.5043 6.0697 18.8107 5.57007 19.1458 5.09126C19.6205 4.41338 20.4393 4.35873 20.8084 5.07564C21.5164 6.45092 22.5831 7.19646 24.0944 7.46579C24.9224 7.61282 25.1806 8.413 24.6029 9.02062C23.5467 10.1305 23.1086 11.3587 23.3459 12.894C23.475 13.7241 22.7813 14.2121 22.0211 13.8373C20.6584 13.1673 19.3714 13.1595 18.0035 13.8269C17.1925 14.2225 16.6122 13.7372 16.6278 12.8186C16.6331 12.5258 16.6278 12.2331 16.6278 11.8987C16.873 11.079 16.5457 10.3972 15.9641 9.78438C15.719 9.52676 15.513 9.2301 15.3082 8.93605C14.904 8.35445 15.0983 7.72211 15.7711 7.49311L15.7738 7.49442Z" fill="#557b43"/>
<path d="M17.0125 20.9024C12.034 20.9011 7.05544 20.9011 2.07689 20.9024C0.725983 20.9024 0.000977975 21.6297 0.000977975 22.9855C-0.000325992 27.9635 -0.000325992 32.9416 0.000977975 37.921C0.000977975 39.2663 0.736415 39.9975 2.08602 39.9988C4.57529 40.0014 7.06456 39.9988 9.55383 39.9988C12.0431 39.9988 14.5324 40.0001 17.0217 39.9988C18.3673 39.9988 19.1002 39.265 19.1002 37.9132C19.1028 32.9351 19.1028 27.957 19.1002 22.9777C19.1002 21.6284 18.3673 20.9037 17.0138 20.9037L17.0125 20.9024ZM9.5434 35.9029C6.54689 35.9029 4.0837 33.4295 4.09413 30.4317C4.10586 27.4509 6.54689 25.0061 9.52776 24.9918C12.5204 24.9775 14.9979 27.4431 15.0044 30.4409C15.0109 33.4347 12.5438 35.9016 9.5421 35.9016L9.5434 35.9029Z" fill="#557b43"/>
</svg>
