<svg width="38" height="40" viewBox="0 0 38 40" fill="none" xmlns="http://www.w3.org/2000/svg">
<path d="M10.1781 40C9.5152 39.7073 9.21173 39.1927 9.32152 38.4771C9.44788 37.6552 9.15477 37.2458 8.37279 36.8573C3.87879 34.6219 1.29362 30.9 0.341789 25.9896C0.182287 25.1656 0.114965 24.324 0 23.4594H34.9049C34.7744 24.3958 34.6968 25.3135 34.5124 26.2094C33.5046 31.0979 30.8635 34.7573 26.3654 36.9458C25.7367 37.2521 25.4788 37.5781 25.5948 38.2385C25.6104 38.3271 25.5917 38.4208 25.5979 38.5115C25.6507 39.2344 25.368 39.7448 24.6761 40H10.1781Z" fill="#eb6f45"/>
<path d="M36.384 0C36.6118 0.2 36.8904 0.363542 37.0561 0.60625C37.3296 1.00833 37.2281 1.43854 37.0199 1.8625C35.3399 5.28854 33.6683 8.71771 31.9946 12.1469C30.5932 15.0156 29.1908 17.8833 27.7947 20.7552C27.6922 20.9667 27.6021 21.1021 27.3203 21.1021C18.8201 21.0927 10.321 21.0938 1.8208 21.0938C1.75762 21.0938 1.69341 21.0885 1.52873 21.0802C1.60744 20.5729 1.63541 20.0687 1.77005 19.5958C2.35006 17.5437 3.65818 16.1729 5.6737 15.5073C5.91295 15.4281 6.01859 15.3167 6.09213 15.0781C6.99632 12.1448 9.93052 10.4344 12.9124 11.1052C13.1527 11.1594 13.3018 11.1333 13.4903 10.9604C15.8248 8.825 19.1371 8.84583 21.4612 10.9917C21.5524 11.076 21.7026 11.15 21.8186 11.1406C22.382 11.0948 22.9444 10.9594 23.5047 10.9688C24.0516 10.9781 24.5974 11.124 25.195 11.2177C25.2365 11.1396 25.3048 11.0198 25.3649 10.8958C26.9713 7.60729 28.5818 4.32083 30.1758 1.02604C30.3923 0.578125 30.6481 0.201042 31.1132 0H31.7336C32.6585 0.586458 32.7765 1.02187 32.2815 2.03646C31.5989 3.43542 30.9164 4.83542 30.2328 6.23437C29.2644 8.21562 28.2929 10.1958 27.3328 12.1823C27.2768 12.2979 27.2478 12.5031 27.311 12.5875C27.6787 13.0833 28.0785 13.5563 28.471 14.0438C28.5218 13.9427 28.587 13.8177 28.6492 13.6896C30.7113 9.46979 32.7765 5.25208 34.8283 1.02708C35.0458 0.579167 35.3006 0.202083 35.7646 0.00104167C35.9717 0.00104167 36.1778 0.00104167 36.385 0.00104167L36.384 0ZM16.295 15.2292C16.293 15.8719 16.8026 16.3969 17.4364 16.4052C18.0755 16.4135 18.6265 15.8583 18.6161 15.2198C18.6058 14.5906 18.0703 14.0615 17.4457 14.0635C16.8119 14.0656 16.2971 14.5875 16.295 15.2292ZM11.6426 17.5594C11.6343 18.2042 12.1366 18.7333 12.7705 18.749C13.4085 18.7646 13.9647 18.2188 13.9636 17.5771C13.9636 16.95 13.4313 16.4125 12.8067 16.4073C12.1729 16.4021 11.6509 16.9188 11.6426 17.5594ZM22.093 16.4073C21.4592 16.4125 20.9475 16.9354 20.9465 17.5781C20.9465 18.2208 21.4581 18.7437 22.092 18.75C22.731 18.7552 23.281 18.199 23.2675 17.5604C23.2541 16.9302 22.7176 16.4042 22.093 16.4083V16.4073Z" fill="#557b43"/>
<path d="M32.0225 17.3969C32.8905 18.5156 33.311 19.7052 33.3286 21.0708H30.2328C30.8263 19.8521 31.4104 18.6542 32.0225 17.3969Z" fill="#eb6f45"/>
</svg>
