<svg width="27" height="22" viewBox="0 0 27 22" fill="none" xmlns="http://www.w3.org/2000/svg">
<path d="M27 13.1892C26.4627 13.7152 25.951 14.2172 25.4004 14.757C24.7791 14.1459 24.1463 13.5253 23.4446 12.836C23.8997 14.8369 24.3337 16.7467 24.78 18.7064H22.5211V22H20.2675V18.7322H18.0015V21.994H15.7443V18.7098H13.489C14.2472 15.387 14.9949 12.1071 15.747 8.81092C16.2905 8.81092 16.8075 8.81092 17.3245 8.81092C18.9674 8.81092 20.6112 8.80748 22.2542 8.81694C22.392 8.81694 22.5679 8.86507 22.6616 8.95446C24.0889 10.3297 25.5055 11.7143 26.924 13.0981C26.954 13.1273 26.977 13.1634 26.9991 13.1909L27 13.1892Z" fill="#557B43"/>
<path d="M6.71487 17.6337V21.9888H4.45066V11.9928C3.47851 12.9417 2.53995 13.8579 1.62525 14.7509C1.05787 14.1983 0.539982 13.6929 0 13.1669C0.0238617 13.1402 0.083958 13.0663 0.152008 13.001C1.52362 11.6636 2.89346 10.3254 4.27214 8.99571C4.36935 8.90203 4.52931 8.81779 4.66099 8.81694C6.77762 8.80576 8.89424 8.8092 11.0109 8.81006C11.0745 8.81006 11.1381 8.81951 11.2159 8.82639V21.994H8.99588V17.6337H6.71399H6.71487Z" fill="#eb6f45"/>
<path d="M4.45684 3.26282C4.4975 1.42864 6.04056 -0.0402483 7.8841 0.00100783C9.77889 0.0431235 11.2778 1.55499 11.23 3.37628C11.1832 5.1821 9.6313 6.64325 7.80014 6.60715C5.92478 6.57019 4.41619 5.06176 4.45684 3.26282Z" fill="#eb6f45"/>
<path d="M22.5219 3.28689C22.5379 5.097 21.0213 6.59254 19.153 6.60887C17.3051 6.6252 15.7567 5.13052 15.7461 3.32127C15.7355 1.5103 17.2512 0.0173384 19.1177 0.000148324C20.9736 -0.0170417 22.5052 1.46216 22.5211 3.28689H22.5219Z" fill="#557B43"/>
</svg>
