<svg width="40" height="33" viewBox="0 0 40 33" fill="none" xmlns="http://www.w3.org/2000/svg">
<path d="M40 19.4436C39.204 20.219 38.4459 20.959 37.6302 21.7547C36.7098 20.8538 35.7723 19.939 34.7327 18.9228C35.407 21.8726 36.0499 24.688 36.7111 27.577H33.3645V32.4324H30.0259V27.615H26.6688V32.4236H23.3249V27.582H19.9836C21.107 22.6835 22.2147 17.8483 23.3289 12.9891C24.1341 12.9891 24.9 12.9891 25.6659 12.9891C28.0999 12.9891 30.5352 12.984 32.9691 12.9979C33.1734 12.9979 33.4339 13.0689 33.5727 13.2007C35.6872 15.228 37.786 17.2693 39.8874 19.3093C39.9319 19.3524 39.966 19.4056 39.9987 19.4461L40 19.4436Z" fill="#557b43"/>
<path d="M9.94796 25.9957V32.416H6.59356V17.6798C5.15335 19.0787 3.76289 20.4294 2.40778 21.7459C1.56722 20.9311 0.799974 20.1861 0 19.4106C0.0353507 19.3714 0.124382 19.2624 0.225197 19.1661C2.25721 17.1945 4.2866 15.2217 6.32909 13.2615C6.47311 13.1234 6.71009 12.9992 6.90517 12.9979C10.0409 12.9815 13.1767 12.9865 16.3124 12.9878C16.4067 12.9878 16.5009 13.0017 16.6161 13.0119V32.4236H13.3272V25.9957H9.94665H9.94796Z" fill="#557b43"/>
<path d="M6.60273 4.81006C6.66296 2.10611 8.94897 -0.0593342 11.6801 0.00148574C14.4873 0.0635727 16.7078 2.29237 16.6371 4.97731C16.5677 7.63945 14.2686 9.79349 11.5558 9.74027C8.77745 9.68579 6.5425 7.46206 6.60273 4.81006Z" fill="#557b43"/>
<path d="M33.3658 4.84554C33.3894 7.51401 31.1427 9.71873 28.3748 9.74281C25.6371 9.76688 23.3433 7.56343 23.3275 4.89622C23.3118 2.22648 25.5573 0.0255603 28.3225 0.000218659C31.072 -0.025123 33.341 2.15552 33.3645 4.84554H33.3658Z" fill="#557b43"/>
</svg>
