<svg width="28" height="27" viewBox="0 0 28 27" fill="none" xmlns="http://www.w3.org/2000/svg">
<path d="M27.9392 17.8322C27.3232 15.0148 26.7112 12.1933 26.0912 9.37593C25.7872 8.00262 24.7984 7.16199 23.4286 7.14118C21.8075 7.12038 20.1864 7.12038 18.5653 7.14118C17.2563 7.15783 16.2513 7.98181 15.9352 9.24692C15.846 9.60065 15.7852 9.95854 15.696 10.3081C15.6555 10.4662 15.7042 10.562 15.8136 10.6702C17.0496 11.9145 16.8389 13.9328 15.3759 14.89C15.3191 14.9274 15.2665 14.969 15.2097 15.0065C15.8298 15.0647 16.4377 15.1188 17.0659 15.1771C17.1915 14.6694 17.3252 14.1201 17.459 13.5707C17.5076 14.1409 17.4995 14.6985 17.5157 15.2562C17.5157 15.3685 17.5968 15.5183 17.6859 15.5849C18.233 15.9886 18.6545 16.4963 18.8652 17.1538C19.311 18.5438 19.7609 19.9296 20.1743 21.332C20.5187 22.4972 19.7649 23.6916 18.5897 23.8664C18.2411 23.9163 17.8764 23.8497 17.5238 23.8331V24.7736H20.5471C20.5471 24.5572 20.5471 24.3616 20.5471 24.166C20.5552 23.8497 20.7376 23.6458 21.001 23.6458C21.2644 23.6458 21.4387 23.8497 21.4509 24.1702C21.4509 24.2908 21.463 24.4157 21.4509 24.5322C21.4265 24.7486 21.5198 24.7986 21.7183 24.7944C22.4843 24.7861 23.2462 24.7944 24.0122 24.7944H24.5025V13.5499C24.7133 14.2532 24.8794 14.9565 25.0496 15.664C25.2725 16.5962 25.4873 17.5284 25.7143 18.4605C25.844 19.0015 26.2492 19.3594 26.7437 19.3927C27.2827 19.4302 27.7123 19.1514 27.9271 18.6312C27.9473 18.5812 27.9757 18.5354 28 18.4897V17.9861C27.9797 17.9362 27.9554 17.8863 27.9433 17.8322H27.9392Z" fill="#557b43"/>
<path d="M10.306 23.8164C9.54813 24.0412 8.87133 23.8705 8.32016 23.3046C7.75684 22.7261 7.60689 22.0145 7.84194 21.2404C8.24316 19.9254 8.66464 18.6145 9.07396 17.3036C9.29281 16.6045 9.68997 16.0385 10.2857 15.6265C10.4397 15.5183 10.5046 15.4101 10.5005 15.2187C10.4883 14.6736 10.4965 14.1242 10.4965 13.5791C10.5127 13.5791 10.5289 13.5749 10.5451 13.5707C10.6788 14.1242 10.8166 14.6819 10.9341 15.1771C11.5704 15.1188 12.1743 15.0647 12.8024 15.0065C12.7052 14.9441 12.6282 14.8983 12.5512 14.8483C11.3232 14.0202 10.9422 12.264 11.8582 11.0988C12.2837 10.5578 12.3202 10.1042 12.1256 9.52574C12.1094 9.47996 12.1013 9.43419 12.0892 9.39257C11.7771 8.01511 10.8045 7.16199 9.43465 7.14535C7.80547 7.12038 6.17224 7.12038 4.54306 7.14535C3.18541 7.16615 2.20466 8.01511 1.90476 9.37176C1.44681 11.4442 1.00101 13.5208 0.54306 15.5933C0.368794 16.3923 0.182371 17.1871 0 17.982V18.4855C0 18.4855 0.0324215 18.5063 0.0364742 18.523C0.291793 19.1555 0.672746 19.4302 1.25228 19.3886C1.78723 19.3511 2.14792 18.9932 2.30192 18.344C2.53698 17.3577 2.77204 16.3715 3.00709 15.3852C3.15299 14.7693 3.30294 14.1534 3.45289 13.5333C3.4691 13.5333 3.48936 13.5375 3.50557 13.5416V24.7486C3.5461 24.7694 3.56231 24.7819 3.57852 24.7819C4.50659 24.7819 5.43465 24.7861 6.36271 24.7944C6.52077 24.7944 6.54103 24.7112 6.53698 24.5822C6.53698 24.2451 6.52888 23.908 6.54103 23.5751C6.55319 23.2754 6.78014 23.0923 7.05572 23.1339C7.29483 23.1672 7.43262 23.3545 7.43668 23.6625C7.44073 24.0328 7.43668 24.399 7.43668 24.7694H10.46V23.7831C10.4357 23.779 10.4235 23.7748 10.4154 23.7748C10.3708 23.7873 10.3262 23.7998 10.2857 23.8123L10.306 23.8164Z" fill="#557b43"/>
<path d="M18.6221 22.9134C19.1814 22.7178 19.4772 22.1227 19.2867 21.5109C18.8774 20.1876 18.4681 18.8642 18.0426 17.5492C17.7386 16.6087 16.9605 16.0052 15.9878 15.9886C14.6667 15.9636 13.3455 15.9595 12.0284 15.9886C11.0679 16.0136 10.3384 16.5005 10.0142 17.4326C9.53597 18.8101 9.12259 20.2084 8.69706 21.6067C8.53901 22.1269 8.82675 22.6803 9.31712 22.8884C9.8156 23.1006 10.3992 22.8884 10.6586 22.4057C10.7315 22.2683 10.7801 22.1144 10.8369 21.9687C11.0233 21.4693 11.2097 20.9699 11.3961 20.4706C11.4164 20.4706 11.4326 20.4789 11.4529 20.483V27H13.5522V26.6879C13.5522 25.893 13.5522 25.1023 13.5522 24.3075C13.5522 24.2243 13.5522 24.141 13.5562 24.0536C13.5805 23.779 13.767 23.5917 14.0142 23.5959C14.2573 23.6 14.4519 23.7956 14.4519 24.0703C14.46 24.9484 14.4519 25.8265 14.4519 26.7004C14.4519 26.7961 14.4519 26.896 14.4519 26.9917H16.5593V20.5122C16.5795 20.5122 16.5998 20.5039 16.6201 20.4997C16.8349 21.0781 17.0456 21.6608 17.2725 22.2392C17.4995 22.8301 18.0669 23.1048 18.6221 22.9134Z" fill="#eb6f45"/>
<path d="M20.997 4.77744C22.2817 4.77744 23.3273 3.72041 23.3394 2.40536C23.3516 1.082 22.3019 0 21.0051 0C19.7123 0 18.6545 1.082 18.6626 2.39704C18.6707 3.71208 19.7163 4.77327 20.997 4.77327V4.77744Z" fill="#557b43"/>
<path d="M7.00304 4.77744C8.2999 4.77744 9.3536 3.6996 9.34549 2.38039C9.33739 1.06535 8.2999 0 7.0152 0C5.72239 0 4.66464 1.07784 4.67275 2.39704C4.6768 3.70792 5.72239 4.77744 7.00709 4.77744H7.00304Z" fill="#eb6f45"/>
<path d="M14.0061 14.3531C14.9625 14.3531 15.7123 13.5707 15.7042 12.5845C15.696 11.619 14.9422 10.8574 13.9939 10.8574C13.0496 10.8574 12.2999 11.6273 12.2958 12.5969C12.2958 13.5791 13.0496 14.3531 14.0061 14.3531Z" fill="#eb6f45"/>
</svg>
